M48
; DRILL file {KiCad 8.0.3} date 2025-07-08T18:19:22+0700
; FORMAT={-:-/ absolute / inch / decimal}
; #@! TF.CreationDate,2025-07-08T18:19:22+07:00
; #@! TF.GenerationSoftware,Kicad,Pcbnew,8.0.3
; #@! TF.FileFunction,Plated,1,2,PTH
FMAT,2
INCH
; #@! TA.AperFunction,Plated,PTH,ViaDrill
T1C0.0157
; #@! TA.AperFunction,Plated,PTH,ComponentDrill
T2C0.0315
; #@! TA.AperFunction,Plated,PTH,ComponentDrill
T3C0.0394
; #@! TA.AperFunction,Plated,PTH,ComponentDrill
T4C0.0433
; #@! TA.AperFunction,Plated,PTH,ComponentDrill
T5C0.0591
; #@! TA.AperFunction,Plated,PTH,ComponentDrill
T6C0.1260
%
G90
G05
T1
X6.15Y-2.5
X6.15Y-2.65
X6.15Y-2.8
X6.15Y-2.95
X6.15Y-3.1
X6.15Y-3.25
X6.3Y-2.5
X6.3Y-2.65
X6.3Y-2.8
X6.3Y-2.95
X6.3Y-3.1
X6.3Y-3.25
X6.45Y-2.5
X6.45Y-2.65
X6.45Y-2.8
X6.45Y-2.95
X6.45Y-3.1
X6.45Y-3.25
X7.05Y-2.95
X7.05Y-3.1
X7.05Y-3.25
X7.05Y-3.6
X7.2Y-2.85
X7.2Y-3.1
X7.2Y-3.25
X7.2Y-3.6
X7.35Y-3.25
X7.35Y-3.6
X7.5Y-3.6
X7.65Y-3.6
X7.8Y-3.6
X8.2Y-2.55
X8.2Y-2.7
X8.2Y-2.85
X8.35Y-2.4
X8.35Y-2.55
X8.35Y-2.7
X8.5Y-2.4
X8.5Y-2.55
X8.5Y-2.7
X8.65Y-2.4
X8.65Y-2.55
X8.65Y-2.7
X8.65Y-2.85
X8.8Y-2.4
X8.8Y-2.55
X8.8Y-2.7
X8.8Y-2.85
T2
X6.4516Y-2.2
X6.55Y-2.2
X6.55Y-2.5
X6.55Y-2.9
X6.7016Y-3.45
X6.7714Y-2.6
X6.8Y-3.05
X6.8984Y-3.05
X6.8984Y-3.45
X6.921Y-2.6
X7.2Y-2.429
X7.2Y-2.5786
X7.55Y-2.85
X7.6Y-2.4516
X7.6Y-2.55
X7.65Y-3.05
X7.95Y-2.85
X7.95Y-3.25
X8.05Y-3.05
X8.1Y-2.4516
X8.1Y-2.6484
X8.35Y-3.25
X8.45Y-2.9122
X8.45Y-3.05
X8.6016Y-3.25
X8.7984Y-3.25
T3
X6.15Y-2.2
X6.15Y-2.3
T4
X6.8992Y-2.2457
X6.9661Y-2.1
X7.0331Y-2.2457
X7.1Y-2.1
X7.15Y-3.45
X7.1669Y-2.2457
X7.4Y-2.1
X7.55Y-3.45
X7.8Y-2.1
T5
X6.5Y-3.6
X8.25Y-2.1
X8.3Y-3.6
X8.45Y-2.1
X8.7Y-3.6
T6
X6.2Y-3.5
X8.7Y-2.2
M30
