%TF.GenerationSoftware,KiCad,Pcbnew,8.0.3*%
%TF.CreationDate,2025-07-08T18:19:17+07:00*%
%TF.ProjectId,tda2030,74646132-3033-4302-9e6b-696361645f70,rev?*%
%TF.SameCoordinates,Original*%
%TF.FileFunction,Soldermask,Bot*%
%TF.FilePolarity,Negative*%
%FSLAX46Y46*%
G04 Gerber Fmt 4.6, Leading zero omitted, Abs format (unit mm)*
G04 Created by KiCad (PCBNEW 8.0.3) date 2025-07-08 18:19:17*
%MOMM*%
%LPD*%
G01*
G04 APERTURE LIST*
%ADD10R,1.600000X1.600000*%
%ADD11C,1.600000*%
%ADD12O,1.600000X1.600000*%
%ADD13C,5.600000*%
%ADD14R,1.700000X1.700000*%
%ADD15O,1.700000X1.700000*%
%ADD16C,3.000000*%
%ADD17R,2.200000X2.200000*%
%ADD18O,2.200000X2.200000*%
%ADD19R,1.800000X1.800000*%
%ADD20O,1.800000X1.800000*%
G04 APERTURE END LIST*
D10*
%TO.C,C7*%
X175220000Y-77470000D03*
D11*
X172720000Y-77470000D03*
%TD*%
D10*
%TO.C,C4*%
X193040000Y-62270000D03*
D11*
X193040000Y-64770000D03*
%TD*%
D10*
%TO.C,C5*%
X182880000Y-61697349D03*
D11*
X182880000Y-65497349D03*
%TD*%
%TO.C,R2*%
X194310000Y-77470000D03*
D12*
X204470000Y-77470000D03*
%TD*%
D13*
%TO.C,REF\u002A\u002A*%
X157480000Y-88900000D03*
%TD*%
D10*
%TO.C,C1*%
X163870000Y-55880000D03*
D11*
X166370000Y-55880000D03*
%TD*%
D14*
%TO.C,audio mono*%
X156210000Y-55880000D03*
D15*
X156210000Y-58420000D03*
%TD*%
D16*
%TO.C,V+*%
X209550000Y-53340000D03*
%TD*%
D11*
%TO.C,R4*%
X201930000Y-82550000D03*
D12*
X212090000Y-82550000D03*
%TD*%
D10*
%TO.C,C6*%
X175792651Y-66040000D03*
D11*
X171992651Y-66040000D03*
%TD*%
D17*
%TO.C,D1*%
X198120000Y-53340000D03*
D18*
X187960000Y-53340000D03*
%TD*%
D16*
%TO.C,S-*%
X220980000Y-91440000D03*
%TD*%
D17*
%TO.C,D2*%
X191770000Y-87630000D03*
D18*
X181610000Y-87630000D03*
%TD*%
D11*
%TO.C,C3*%
X205740000Y-62270000D03*
X205740000Y-67270000D03*
%TD*%
D16*
%TO.C,S+*%
X210820000Y-91440000D03*
%TD*%
%TO.C,0v*%
X214630000Y-53340000D03*
%TD*%
D13*
%TO.C,REF\u002A\u002A*%
X220980000Y-55880000D03*
%TD*%
D16*
%TO.C,V-*%
X165100000Y-91440000D03*
%TD*%
D19*
%TO.C,U1*%
X175240000Y-57040000D03*
D20*
X176940000Y-53340000D03*
X178640000Y-57040000D03*
X180340000Y-53340000D03*
X182040000Y-57040000D03*
%TD*%
D11*
%TO.C,R3*%
X166370000Y-63500000D03*
D12*
X166370000Y-73660000D03*
%TD*%
D11*
%TO.C,C9*%
X218480000Y-82550000D03*
X223480000Y-82550000D03*
%TD*%
D10*
%TO.C,C2*%
X214630000Y-77470000D03*
D11*
X214630000Y-73970000D03*
%TD*%
%TO.C,C8*%
X175220000Y-87630000D03*
X170220000Y-87630000D03*
%TD*%
%TO.C,R1*%
X191770000Y-72390000D03*
D12*
X201930000Y-72390000D03*
%TD*%
M02*
