%TF.GenerationSoftware,KiCad,Pcbnew,8.0.3*%
%TF.CreationDate,2025-07-08T18:19:16+07:00*%
%TF.ProjectId,tda2030,74646132-3033-4302-9e6b-696361645f70,rev?*%
%TF.SameCoordinates,Original*%
%TF.FileFunction,Copper,L1,Top*%
%TF.FilePolarity,Positive*%
%FSLAX46Y46*%
G04 Gerber Fmt 4.6, Leading zero omitted, Abs format (unit mm)*
G04 Created by KiCad (PCBNEW 8.0.3) date 2025-07-08 18:19:16*
%MOMM*%
%LPD*%
G01*
G04 APERTURE LIST*
%TA.AperFunction,ComponentPad*%
%ADD10R,1.600000X1.600000*%
%TD*%
%TA.AperFunction,ComponentPad*%
%ADD11C,1.600000*%
%TD*%
%TA.AperFunction,ComponentPad*%
%ADD12O,1.600000X1.600000*%
%TD*%
%TA.AperFunction,ComponentPad*%
%ADD13C,5.600000*%
%TD*%
%TA.AperFunction,ComponentPad*%
%ADD14R,1.700000X1.700000*%
%TD*%
%TA.AperFunction,ComponentPad*%
%ADD15O,1.700000X1.700000*%
%TD*%
%TA.AperFunction,ComponentPad*%
%ADD16C,3.000000*%
%TD*%
%TA.AperFunction,ComponentPad*%
%ADD17R,2.200000X2.200000*%
%TD*%
%TA.AperFunction,ComponentPad*%
%ADD18O,2.200000X2.200000*%
%TD*%
%TA.AperFunction,ComponentPad*%
%ADD19R,1.800000X1.800000*%
%TD*%
%TA.AperFunction,ComponentPad*%
%ADD20O,1.800000X1.800000*%
%TD*%
%TA.AperFunction,ViaPad*%
%ADD21C,1.000000*%
%TD*%
%TA.AperFunction,Conductor*%
%ADD22C,1.000000*%
%TD*%
G04 APERTURE END LIST*
D10*
%TO.P,C7,1*%
%TO.N,V-*%
X175220000Y-77470000D03*
D11*
%TO.P,C7,2*%
%TO.N,GND*%
X172720000Y-77470000D03*
%TD*%
D10*
%TO.P,C4,1*%
%TO.N,v+*%
X193040000Y-62270000D03*
D11*
%TO.P,C4,2*%
%TO.N,GND*%
X193040000Y-64770000D03*
%TD*%
D10*
%TO.P,C5,1*%
%TO.N,v+*%
X182880000Y-61697349D03*
D11*
%TO.P,C5,2*%
%TO.N,GND*%
X182880000Y-65497349D03*
%TD*%
%TO.P,R2,1*%
%TO.N,Net-(U1--)*%
X194310000Y-77470000D03*
D12*
%TO.P,R2,2*%
%TO.N,Net-(C2-Pad1)*%
X204470000Y-77470000D03*
%TD*%
D13*
%TO.P,REF\u002A\u002A,1*%
%TO.N,N/C*%
X157480000Y-88900000D03*
%TD*%
D10*
%TO.P,C1,1*%
%TO.N,audio in*%
X163870000Y-55880000D03*
D11*
%TO.P,C1,2*%
%TO.N,Net-(U1-+)*%
X166370000Y-55880000D03*
%TD*%
D14*
%TO.P,audio mono,1*%
%TO.N,audio in*%
X156210000Y-55880000D03*
D15*
%TO.P,audio mono,2*%
%TO.N,GND*%
X156210000Y-58420000D03*
%TD*%
D16*
%TO.P,V+,1*%
%TO.N,v+*%
X209550000Y-53340000D03*
%TD*%
D11*
%TO.P,R4,1*%
%TO.N,S+*%
X201930000Y-82550000D03*
D12*
%TO.P,R4,2*%
%TO.N,Net-(C9-Pad1)*%
X212090000Y-82550000D03*
%TD*%
D10*
%TO.P,C6,1*%
%TO.N,V-*%
X175792651Y-66040000D03*
D11*
%TO.P,C6,2*%
%TO.N,GND*%
X171992651Y-66040000D03*
%TD*%
D17*
%TO.P,D1,1,K*%
%TO.N,v+*%
X198120000Y-53340000D03*
D18*
%TO.P,D1,2,A*%
%TO.N,S+*%
X187960000Y-53340000D03*
%TD*%
D16*
%TO.P,S-,1*%
%TO.N,GND*%
X220980000Y-91440000D03*
%TD*%
D17*
%TO.P,D2,1,K*%
%TO.N,S+*%
X191770000Y-87630000D03*
D18*
%TO.P,D2,2,A*%
%TO.N,V-*%
X181610000Y-87630000D03*
%TD*%
D11*
%TO.P,C3,1*%
%TO.N,v+*%
X205740000Y-62270000D03*
%TO.P,C3,2*%
%TO.N,GND*%
X205740000Y-67270000D03*
%TD*%
D16*
%TO.P,S+,1*%
%TO.N,S+*%
X210820000Y-91440000D03*
%TD*%
%TO.P,0v,1*%
%TO.N,GND*%
X214630000Y-53340000D03*
%TD*%
D13*
%TO.P,REF\u002A\u002A,1*%
%TO.N,N/C*%
X220980000Y-55880000D03*
%TD*%
D16*
%TO.P,V-,1*%
%TO.N,V-*%
X165100000Y-91440000D03*
%TD*%
D19*
%TO.P,U1,1,+*%
%TO.N,Net-(U1-+)*%
X175240000Y-57040000D03*
D20*
%TO.P,U1,2,-*%
%TO.N,Net-(U1--)*%
X176940000Y-53340000D03*
%TO.P,U1,3,-Vs*%
%TO.N,V-*%
X178640000Y-57040000D03*
%TO.P,U1,4*%
%TO.N,S+*%
X180340000Y-53340000D03*
%TO.P,U1,5,+Vs*%
%TO.N,v+*%
X182040000Y-57040000D03*
%TD*%
D11*
%TO.P,R3,1*%
%TO.N,Net-(U1-+)*%
X166370000Y-63500000D03*
D12*
%TO.P,R3,2*%
%TO.N,GND*%
X166370000Y-73660000D03*
%TD*%
D11*
%TO.P,C9,1*%
%TO.N,Net-(C9-Pad1)*%
X218480000Y-82550000D03*
%TO.P,C9,2*%
%TO.N,GND*%
X223480000Y-82550000D03*
%TD*%
D10*
%TO.P,C2,1*%
%TO.N,Net-(C2-Pad1)*%
X214630000Y-77470000D03*
D11*
%TO.P,C2,2*%
%TO.N,GND*%
X214630000Y-73970000D03*
%TD*%
%TO.P,C8,1*%
%TO.N,V-*%
X175220000Y-87630000D03*
%TO.P,C8,2*%
%TO.N,GND*%
X170220000Y-87630000D03*
%TD*%
%TO.P,R1,1*%
%TO.N,Net-(U1--)*%
X191770000Y-72390000D03*
D12*
%TO.P,R1,2*%
%TO.N,S+*%
X201930000Y-72390000D03*
%TD*%
D21*
%TO.N,GND*%
X182880000Y-91440000D03*
X163830000Y-63500000D03*
X219710000Y-60960000D03*
X186690000Y-91440000D03*
X156210000Y-63500000D03*
X212090000Y-60960000D03*
X163830000Y-71120000D03*
X198120000Y-91440000D03*
X182880000Y-78740000D03*
X194310000Y-91440000D03*
X156210000Y-74930000D03*
X223520000Y-64770000D03*
X179070000Y-78740000D03*
X223520000Y-60960000D03*
X163830000Y-74930000D03*
X223520000Y-68580000D03*
X160020000Y-63500000D03*
X215900000Y-68580000D03*
X208280000Y-68580000D03*
X190500000Y-91440000D03*
X179070000Y-82550000D03*
X163830000Y-67310000D03*
X212090000Y-68580000D03*
X179070000Y-91440000D03*
X156210000Y-71120000D03*
X208280000Y-72390000D03*
X182880000Y-82550000D03*
X156210000Y-78740000D03*
X163830000Y-78740000D03*
X215900000Y-64770000D03*
X160020000Y-78740000D03*
X219710000Y-68580000D03*
X160020000Y-74930000D03*
X163830000Y-82550000D03*
X223520000Y-72390000D03*
X208280000Y-64770000D03*
X160020000Y-67310000D03*
X212090000Y-64770000D03*
X156210000Y-82550000D03*
X160020000Y-71120000D03*
X219710000Y-72390000D03*
X219710000Y-64770000D03*
X179070000Y-74930000D03*
X156210000Y-67310000D03*
X160020000Y-82550000D03*
X215900000Y-60960000D03*
X186690000Y-82550000D03*
%TO.N,Net-(U1--)*%
X182880000Y-72390000D03*
%TD*%
D22*
%TO.N,v+*%
X194420000Y-57040000D02*
X182040000Y-57040000D01*
X206970000Y-62270000D02*
X205740000Y-62270000D01*
X182040000Y-60857349D02*
X182880000Y-61697349D01*
X209550000Y-60960000D02*
X208280000Y-62230000D01*
X193080000Y-62270000D02*
X193040000Y-62310000D01*
X209550000Y-53340000D02*
X209550000Y-60960000D01*
X198120000Y-53340000D02*
X194420000Y-57040000D01*
X205740000Y-62270000D02*
X183452651Y-62270000D01*
X183452651Y-62270000D02*
X182880000Y-61697349D01*
X207010000Y-62230000D02*
X206970000Y-62270000D01*
X208280000Y-62230000D02*
X207010000Y-62230000D01*
X182040000Y-57040000D02*
X182040000Y-60857349D01*
%TO.N,V-*%
X181610000Y-87630000D02*
X175220000Y-87630000D01*
X175220000Y-66612651D02*
X175792651Y-66040000D01*
X175220000Y-88860000D02*
X175220000Y-87630000D01*
X175260000Y-90170000D02*
X175260000Y-88900000D01*
X165100000Y-91440000D02*
X173990000Y-91440000D01*
X175220000Y-87630000D02*
X175220000Y-66612651D01*
X177800000Y-66040000D02*
X175792651Y-66040000D01*
X178640000Y-57040000D02*
X178640000Y-65200000D01*
X178640000Y-65200000D02*
X177800000Y-66040000D01*
X175260000Y-88900000D02*
X175220000Y-88860000D01*
X173990000Y-91440000D02*
X175260000Y-90170000D01*
%TO.N,Net-(U1--)*%
X191770000Y-72390000D02*
X182880000Y-72390000D01*
%TO.N,Net-(U1-+)*%
X166370000Y-55880000D02*
X174080000Y-55880000D01*
X174080000Y-55880000D02*
X175240000Y-57040000D01*
%TO.N,audio in*%
X156210000Y-55880000D02*
X163870000Y-55880000D01*
%TO.N,S+*%
X210820000Y-91440000D02*
X203200000Y-91440000D01*
X201930000Y-90170000D02*
X201930000Y-82550000D01*
X203200000Y-91440000D02*
X201930000Y-90170000D01*
X187960000Y-53340000D02*
X180340000Y-53340000D01*
%TD*%
%TA.AperFunction,Conductor*%
%TO.N,GND*%
G36*
X208692037Y-51320185D02*
G01*
X208737792Y-51372989D01*
X208747736Y-51442147D01*
X208718711Y-51505703D01*
X208684425Y-51533332D01*
X208465690Y-51652770D01*
X208465682Y-51652775D01*
X208236612Y-51824254D01*
X208236594Y-51824270D01*
X208034270Y-52026594D01*
X208034254Y-52026612D01*
X207862775Y-52255682D01*
X207862770Y-52255690D01*
X207725635Y-52506833D01*
X207625628Y-52774962D01*
X207564804Y-53054566D01*
X207544390Y-53339998D01*
X207544390Y-53340001D01*
X207564804Y-53625433D01*
X207625628Y-53905037D01*
X207625630Y-53905043D01*
X207625631Y-53905046D01*
X207725557Y-54172958D01*
X207725635Y-54173166D01*
X207862770Y-54424309D01*
X207862775Y-54424317D01*
X208034254Y-54653387D01*
X208034270Y-54653405D01*
X208236594Y-54855729D01*
X208236612Y-54855745D01*
X208465680Y-55027223D01*
X208465683Y-55027225D01*
X208465685Y-55027226D01*
X208484926Y-55037732D01*
X208534331Y-55087134D01*
X208549500Y-55146564D01*
X208549500Y-60494218D01*
X208529815Y-60561257D01*
X208513181Y-60581899D01*
X207901899Y-61193181D01*
X207840576Y-61226666D01*
X207814218Y-61229500D01*
X207114675Y-61229500D01*
X207114655Y-61229499D01*
X207108541Y-61229499D01*
X206911460Y-61229499D01*
X206911457Y-61229499D01*
X206722340Y-61267117D01*
X206698149Y-61269500D01*
X206617588Y-61269500D01*
X206550549Y-61249815D01*
X206546465Y-61247075D01*
X206521365Y-61229500D01*
X206392734Y-61139432D01*
X206334876Y-61112452D01*
X206186497Y-61043261D01*
X206186488Y-61043258D01*
X205966697Y-60984366D01*
X205966693Y-60984365D01*
X205966692Y-60984365D01*
X205966691Y-60984364D01*
X205966686Y-60984364D01*
X205740002Y-60964532D01*
X205739998Y-60964532D01*
X205513313Y-60984364D01*
X205513302Y-60984366D01*
X205293511Y-61043258D01*
X205293502Y-61043261D01*
X205087267Y-61139431D01*
X205087265Y-61139432D01*
X205010504Y-61193181D01*
X204958635Y-61229500D01*
X204933535Y-61247075D01*
X204867329Y-61269402D01*
X204862412Y-61269500D01*
X194377180Y-61269500D01*
X194310141Y-61249815D01*
X194277913Y-61219811D01*
X194257978Y-61193181D01*
X194197546Y-61112454D01*
X194125532Y-61058544D01*
X194082335Y-61026206D01*
X194082328Y-61026202D01*
X193947482Y-60975908D01*
X193947483Y-60975908D01*
X193887883Y-60969501D01*
X193887881Y-60969500D01*
X193887873Y-60969500D01*
X193887864Y-60969500D01*
X192192129Y-60969500D01*
X192192123Y-60969501D01*
X192132516Y-60975908D01*
X191997671Y-61026202D01*
X191997664Y-61026206D01*
X191882456Y-61112452D01*
X191882455Y-61112453D01*
X191882454Y-61112454D01*
X191854958Y-61149184D01*
X191802087Y-61219811D01*
X191746153Y-61261682D01*
X191702820Y-61269500D01*
X184304499Y-61269500D01*
X184237460Y-61249815D01*
X184191705Y-61197011D01*
X184180499Y-61145500D01*
X184180499Y-60849478D01*
X184180498Y-60849472D01*
X184174091Y-60789865D01*
X184123797Y-60655020D01*
X184123793Y-60655013D01*
X184037547Y-60539804D01*
X184037544Y-60539801D01*
X183922335Y-60453555D01*
X183922328Y-60453551D01*
X183787482Y-60403257D01*
X183787483Y-60403257D01*
X183727883Y-60396850D01*
X183727881Y-60396849D01*
X183727873Y-60396849D01*
X183727865Y-60396849D01*
X183164500Y-60396849D01*
X183097461Y-60377164D01*
X183051706Y-60324360D01*
X183040500Y-60272849D01*
X183040500Y-58164500D01*
X183060185Y-58097461D01*
X183112989Y-58051706D01*
X183164500Y-58040500D01*
X194518542Y-58040500D01*
X194537870Y-58036655D01*
X194615188Y-58021275D01*
X194711836Y-58002051D01*
X194765165Y-57979961D01*
X194893914Y-57926632D01*
X195057782Y-57817139D01*
X195197139Y-57677782D01*
X195197140Y-57677779D01*
X195204206Y-57670714D01*
X195204209Y-57670710D01*
X197898101Y-54976818D01*
X197959424Y-54943333D01*
X197985782Y-54940499D01*
X199267871Y-54940499D01*
X199267872Y-54940499D01*
X199327483Y-54934091D01*
X199462331Y-54883796D01*
X199577546Y-54797546D01*
X199663796Y-54682331D01*
X199714091Y-54547483D01*
X199720500Y-54487873D01*
X199720499Y-52192128D01*
X199714091Y-52132517D01*
X199706974Y-52113436D01*
X199663797Y-51997671D01*
X199663793Y-51997664D01*
X199577547Y-51882455D01*
X199577544Y-51882452D01*
X199462335Y-51796206D01*
X199462328Y-51796202D01*
X199327482Y-51745908D01*
X199327483Y-51745908D01*
X199267883Y-51739501D01*
X199267881Y-51739500D01*
X199267873Y-51739500D01*
X199267864Y-51739500D01*
X196972129Y-51739500D01*
X196972123Y-51739501D01*
X196912516Y-51745908D01*
X196777671Y-51796202D01*
X196777664Y-51796206D01*
X196662455Y-51882452D01*
X196662452Y-51882455D01*
X196576206Y-51997664D01*
X196576202Y-51997671D01*
X196525908Y-52132517D01*
X196522574Y-52163535D01*
X196519501Y-52192123D01*
X196519500Y-52192135D01*
X196519500Y-53474217D01*
X196499815Y-53541256D01*
X196483181Y-53561898D01*
X194041899Y-56003181D01*
X193980576Y-56036666D01*
X193954218Y-56039500D01*
X183076464Y-56039500D01*
X183009425Y-56019815D01*
X182992479Y-56006728D01*
X182991794Y-56006098D01*
X182991784Y-56006087D01*
X182852482Y-55897664D01*
X182808628Y-55863531D01*
X182604504Y-55753064D01*
X182604495Y-55753061D01*
X182384984Y-55677702D01*
X182194450Y-55645908D01*
X182156049Y-55639500D01*
X181923951Y-55639500D01*
X181885550Y-55645908D01*
X181695015Y-55677702D01*
X181475504Y-55753061D01*
X181475495Y-55753064D01*
X181271371Y-55863531D01*
X181271365Y-55863535D01*
X181088222Y-56006081D01*
X181088219Y-56006084D01*
X181088216Y-56006086D01*
X181088216Y-56006087D01*
X181063886Y-56032517D01*
X180931016Y-56176852D01*
X180804075Y-56371151D01*
X180710842Y-56583699D01*
X180653866Y-56808691D01*
X180653864Y-56808702D01*
X180634700Y-57039993D01*
X180634700Y-57040006D01*
X180653864Y-57271297D01*
X180653866Y-57271308D01*
X180710842Y-57496300D01*
X180804075Y-57708848D01*
X180931016Y-57903147D01*
X180931019Y-57903151D01*
X180931021Y-57903153D01*
X181006731Y-57985396D01*
X181037652Y-58048049D01*
X181039500Y-58069377D01*
X181039500Y-60955890D01*
X181039500Y-60955892D01*
X181039499Y-60955892D01*
X181077947Y-61149178D01*
X181077950Y-61149188D01*
X181153364Y-61331256D01*
X181153371Y-61331269D01*
X181262859Y-61495129D01*
X181262860Y-61495130D01*
X181262861Y-61495131D01*
X181402218Y-61634488D01*
X181402219Y-61634488D01*
X181409286Y-61641555D01*
X181409285Y-61641555D01*
X181409289Y-61641558D01*
X181543181Y-61775450D01*
X181576666Y-61836773D01*
X181579500Y-61863131D01*
X181579500Y-62545219D01*
X181579501Y-62545225D01*
X181585908Y-62604832D01*
X181636202Y-62739677D01*
X181636206Y-62739684D01*
X181722452Y-62854893D01*
X181722455Y-62854896D01*
X181837664Y-62941142D01*
X181837671Y-62941146D01*
X181882618Y-62957910D01*
X181972517Y-62991440D01*
X182032127Y-62997849D01*
X182714215Y-62997848D01*
X182781254Y-63017532D01*
X182801896Y-63034167D01*
X182814865Y-63047136D01*
X182814869Y-63047139D01*
X182978730Y-63156628D01*
X182978732Y-63156629D01*
X182978737Y-63156632D01*
X183075304Y-63196631D01*
X183160815Y-63232051D01*
X183257463Y-63251275D01*
X183305786Y-63260887D01*
X183354109Y-63270500D01*
X183354110Y-63270500D01*
X183354111Y-63270500D01*
X183551191Y-63270500D01*
X191702820Y-63270500D01*
X191769859Y-63290185D01*
X191802085Y-63320187D01*
X191882454Y-63427546D01*
X191928643Y-63462123D01*
X191997664Y-63513793D01*
X191997671Y-63513797D01*
X192042618Y-63530561D01*
X192132517Y-63564091D01*
X192192127Y-63570500D01*
X192192153Y-63570499D01*
X192195453Y-63570678D01*
X192195372Y-63572183D01*
X192256672Y-63590112D01*
X192302483Y-63642867D01*
X192310016Y-63686464D01*
X192993553Y-64370000D01*
X192987339Y-64370000D01*
X192885606Y-64397259D01*
X192794394Y-64449920D01*
X192719920Y-64524394D01*
X192667259Y-64615606D01*
X192640000Y-64717339D01*
X192640000Y-64723552D01*
X191960974Y-64044526D01*
X191960973Y-64044526D01*
X191909868Y-64117512D01*
X191909866Y-64117516D01*
X191813734Y-64323673D01*
X191813730Y-64323682D01*
X191754860Y-64543389D01*
X191754858Y-64543400D01*
X191735034Y-64769997D01*
X191735034Y-64770002D01*
X191754858Y-64996599D01*
X191754860Y-64996610D01*
X191813730Y-65216317D01*
X191813735Y-65216331D01*
X191909863Y-65422478D01*
X191960974Y-65495472D01*
X192640000Y-64816446D01*
X192640000Y-64822661D01*
X192667259Y-64924394D01*
X192719920Y-65015606D01*
X192794394Y-65090080D01*
X192885606Y-65142741D01*
X192987339Y-65170000D01*
X192993553Y-65170000D01*
X192314526Y-65849025D01*
X192387513Y-65900132D01*
X192387521Y-65900136D01*
X192593668Y-65996264D01*
X192593682Y-65996269D01*
X192813389Y-66055139D01*
X192813400Y-66055141D01*
X193039998Y-66074966D01*
X193040002Y-66074966D01*
X193266599Y-66055141D01*
X193266610Y-66055139D01*
X193486317Y-65996269D01*
X193486331Y-65996264D01*
X193692478Y-65900136D01*
X193765471Y-65849024D01*
X193086447Y-65170000D01*
X193092661Y-65170000D01*
X193194394Y-65142741D01*
X193285606Y-65090080D01*
X193360080Y-65015606D01*
X193412741Y-64924394D01*
X193440000Y-64822661D01*
X193440000Y-64816447D01*
X194119024Y-65495471D01*
X194170136Y-65422478D01*
X194266264Y-65216331D01*
X194266269Y-65216317D01*
X194325139Y-64996610D01*
X194325141Y-64996599D01*
X194344966Y-64770002D01*
X194344966Y-64769997D01*
X194325141Y-64543400D01*
X194325139Y-64543389D01*
X194266269Y-64323682D01*
X194266264Y-64323668D01*
X194170136Y-64117521D01*
X194170132Y-64117513D01*
X194119025Y-64044526D01*
X193440000Y-64723551D01*
X193440000Y-64717339D01*
X193412741Y-64615606D01*
X193360080Y-64524394D01*
X193285606Y-64449920D01*
X193194394Y-64397259D01*
X193092661Y-64370000D01*
X193086448Y-64370000D01*
X193770645Y-63685801D01*
X193780492Y-63636807D01*
X193829107Y-63586624D01*
X193884633Y-63571981D01*
X193884576Y-63570900D01*
X193884571Y-63570854D01*
X193884573Y-63570853D01*
X193884564Y-63570676D01*
X193887857Y-63570499D01*
X193887872Y-63570499D01*
X193947483Y-63564091D01*
X194082331Y-63513796D01*
X194197546Y-63427546D01*
X194277914Y-63320188D01*
X194333847Y-63278318D01*
X194377180Y-63270500D01*
X204862412Y-63270500D01*
X204929451Y-63290185D01*
X204933523Y-63292917D01*
X205087266Y-63400568D01*
X205293504Y-63496739D01*
X205293509Y-63496740D01*
X205293511Y-63496741D01*
X205305674Y-63500000D01*
X205513308Y-63555635D01*
X205675230Y-63569801D01*
X205739998Y-63575468D01*
X205740000Y-63575468D01*
X205740002Y-63575468D01*
X205796807Y-63570498D01*
X205966692Y-63555635D01*
X206186496Y-63496739D01*
X206392734Y-63400568D01*
X206546465Y-63292924D01*
X206612671Y-63270598D01*
X206617588Y-63270500D01*
X207068542Y-63270500D01*
X207087870Y-63266655D01*
X207165188Y-63251275D01*
X207257658Y-63232881D01*
X207281847Y-63230500D01*
X208378542Y-63230500D01*
X208397870Y-63226655D01*
X208475188Y-63211275D01*
X208571836Y-63192051D01*
X208625165Y-63169961D01*
X208753914Y-63116632D01*
X208917782Y-63007139D01*
X209057139Y-62867782D01*
X209057140Y-62867779D01*
X209064206Y-62860714D01*
X209064209Y-62860710D01*
X210187778Y-61737141D01*
X210187782Y-61737139D01*
X210327139Y-61597782D01*
X210436632Y-61433914D01*
X210504195Y-61270802D01*
X210512051Y-61251836D01*
X210550500Y-61058540D01*
X210550500Y-60861460D01*
X210550500Y-55880000D01*
X217674652Y-55880000D01*
X217690746Y-56176847D01*
X217694028Y-56237368D01*
X217694029Y-56237385D01*
X217751926Y-56590539D01*
X217751932Y-56590565D01*
X217847672Y-56935392D01*
X217847674Y-56935399D01*
X217980142Y-57267870D01*
X217980151Y-57267888D01*
X218147784Y-57584077D01*
X218147787Y-57584082D01*
X218147789Y-57584085D01*
X218305803Y-57817139D01*
X218348634Y-57880309D01*
X218348641Y-57880319D01*
X218580331Y-58153085D01*
X218580332Y-58153086D01*
X218840163Y-58399211D01*
X219125081Y-58615800D01*
X219431747Y-58800315D01*
X219431749Y-58800316D01*
X219431751Y-58800317D01*
X219431755Y-58800319D01*
X219611519Y-58883486D01*
X219756565Y-58950591D01*
X220095726Y-59064868D01*
X220445254Y-59141805D01*
X220801052Y-59180500D01*
X220801058Y-59180500D01*
X221158942Y-59180500D01*
X221158948Y-59180500D01*
X221514746Y-59141805D01*
X221864274Y-59064868D01*
X222203435Y-58950591D01*
X222528253Y-58800315D01*
X222834919Y-58615800D01*
X223119837Y-58399211D01*
X223379668Y-58153086D01*
X223611365Y-57880311D01*
X223812211Y-57584085D01*
X223979853Y-57267880D01*
X224112324Y-56935403D01*
X224208071Y-56590552D01*
X224225891Y-56481848D01*
X224265970Y-56237385D01*
X224265970Y-56237382D01*
X224265972Y-56237371D01*
X224285348Y-55880000D01*
X224265972Y-55522629D01*
X224241784Y-55375091D01*
X224208073Y-55169460D01*
X224208072Y-55169459D01*
X224208071Y-55169448D01*
X224138243Y-54917949D01*
X224112327Y-54824607D01*
X224112325Y-54824600D01*
X224097610Y-54787669D01*
X224044108Y-54653387D01*
X223979857Y-54492129D01*
X223979848Y-54492111D01*
X223977606Y-54487883D01*
X223899469Y-54340500D01*
X223812215Y-54175922D01*
X223812213Y-54175919D01*
X223812211Y-54175915D01*
X223611365Y-53879689D01*
X223611361Y-53879684D01*
X223611358Y-53879680D01*
X223379668Y-53606914D01*
X223342076Y-53571305D01*
X223119837Y-53360789D01*
X223119830Y-53360783D01*
X223119827Y-53360781D01*
X223052245Y-53309407D01*
X222834919Y-53144200D01*
X222528253Y-52959685D01*
X222528252Y-52959684D01*
X222528248Y-52959682D01*
X222528244Y-52959680D01*
X222203447Y-52809414D01*
X222203441Y-52809411D01*
X222203435Y-52809409D01*
X222033854Y-52752270D01*
X221864273Y-52695131D01*
X221514744Y-52618194D01*
X221158949Y-52579500D01*
X221158948Y-52579500D01*
X220801052Y-52579500D01*
X220801050Y-52579500D01*
X220445255Y-52618194D01*
X220095726Y-52695131D01*
X219858823Y-52774954D01*
X219756565Y-52809409D01*
X219756563Y-52809410D01*
X219756552Y-52809414D01*
X219431755Y-52959680D01*
X219431751Y-52959682D01*
X219217077Y-53088848D01*
X219125081Y-53144200D01*
X219036768Y-53211333D01*
X218840172Y-53360781D01*
X218840163Y-53360789D01*
X218580331Y-53606914D01*
X218348641Y-53879680D01*
X218348634Y-53879690D01*
X218147790Y-54175913D01*
X218147784Y-54175922D01*
X217980151Y-54492111D01*
X217980142Y-54492129D01*
X217847674Y-54824600D01*
X217847672Y-54824607D01*
X217751932Y-55169434D01*
X217751926Y-55169460D01*
X217694029Y-55522614D01*
X217694028Y-55522627D01*
X217694028Y-55522629D01*
X217674652Y-55880000D01*
X210550500Y-55880000D01*
X210550500Y-55146564D01*
X210570185Y-55079525D01*
X210615072Y-55037732D01*
X210634315Y-55027226D01*
X210863395Y-54855739D01*
X211065739Y-54653395D01*
X211237226Y-54424315D01*
X211374367Y-54173161D01*
X211474369Y-53905046D01*
X211498025Y-53796300D01*
X211535195Y-53625433D01*
X211535195Y-53625432D01*
X211535196Y-53625428D01*
X211555610Y-53340000D01*
X211555609Y-53339993D01*
X211541606Y-53144199D01*
X211535196Y-53054572D01*
X211520005Y-52984742D01*
X211474371Y-52774962D01*
X211474370Y-52774960D01*
X211474369Y-52774954D01*
X211374367Y-52506839D01*
X211314031Y-52396343D01*
X211237229Y-52255690D01*
X211237224Y-52255682D01*
X211065745Y-52026612D01*
X211065729Y-52026594D01*
X210863405Y-51824270D01*
X210863387Y-51824254D01*
X210634317Y-51652775D01*
X210634309Y-51652770D01*
X210415575Y-51533332D01*
X210366170Y-51483927D01*
X210351318Y-51415654D01*
X210375735Y-51350189D01*
X210431669Y-51308318D01*
X210475002Y-51300500D01*
X213706042Y-51300500D01*
X213773081Y-51320185D01*
X213818836Y-51372989D01*
X213828780Y-51442147D01*
X213799755Y-51505703D01*
X213765469Y-51533332D01*
X213545961Y-51653191D01*
X213545953Y-51653196D01*
X213403437Y-51759882D01*
X213403436Y-51759883D01*
X214305975Y-52662421D01*
X214274742Y-52675359D01*
X214151903Y-52757437D01*
X214047437Y-52861903D01*
X213965359Y-52984742D01*
X213952421Y-53015974D01*
X213049883Y-52113436D01*
X213049882Y-52113437D01*
X212943196Y-52255953D01*
X212943191Y-52255961D01*
X212806091Y-52507041D01*
X212706109Y-52775104D01*
X212645300Y-53054637D01*
X212624891Y-53339998D01*
X212624891Y-53340001D01*
X212645300Y-53625362D01*
X212706109Y-53904895D01*
X212806091Y-54172958D01*
X212943191Y-54424038D01*
X212943196Y-54424046D01*
X213049882Y-54566561D01*
X213049883Y-54566562D01*
X213952421Y-53664024D01*
X213965359Y-53695258D01*
X214047437Y-53818097D01*
X214151903Y-53922563D01*
X214274742Y-54004641D01*
X214305974Y-54017578D01*
X213403436Y-54920115D01*
X213545960Y-55026807D01*
X213545961Y-55026808D01*
X213797042Y-55163908D01*
X213797041Y-55163908D01*
X214065104Y-55263890D01*
X214344637Y-55324699D01*
X214629999Y-55345109D01*
X214630001Y-55345109D01*
X214915362Y-55324699D01*
X215194895Y-55263890D01*
X215462958Y-55163908D01*
X215714047Y-55026803D01*
X215856561Y-54920116D01*
X215856562Y-54920115D01*
X214954025Y-54017577D01*
X214985258Y-54004641D01*
X215108097Y-53922563D01*
X215212563Y-53818097D01*
X215294641Y-53695258D01*
X215307578Y-53664025D01*
X216210115Y-54566562D01*
X216210116Y-54566561D01*
X216316803Y-54424047D01*
X216453908Y-54172958D01*
X216553890Y-53904895D01*
X216614699Y-53625362D01*
X216635109Y-53340001D01*
X216635109Y-53339998D01*
X216614699Y-53054637D01*
X216553890Y-52775104D01*
X216453908Y-52507041D01*
X216316808Y-52255961D01*
X216316807Y-52255960D01*
X216210115Y-52113436D01*
X215307577Y-53015973D01*
X215294641Y-52984742D01*
X215212563Y-52861903D01*
X215108097Y-52757437D01*
X214985258Y-52675359D01*
X214954024Y-52662421D01*
X215856562Y-51759883D01*
X215856561Y-51759882D01*
X215714046Y-51653196D01*
X215714038Y-51653191D01*
X215494531Y-51533332D01*
X215445126Y-51483927D01*
X215430274Y-51415654D01*
X215454691Y-51350190D01*
X215510624Y-51308318D01*
X215553958Y-51300500D01*
X225435500Y-51300500D01*
X225502539Y-51320185D01*
X225548294Y-51372989D01*
X225559500Y-51424500D01*
X225559500Y-93355500D01*
X225539815Y-93422539D01*
X225487011Y-93468294D01*
X225435500Y-93479500D01*
X221903958Y-93479500D01*
X221836919Y-93459815D01*
X221791164Y-93407011D01*
X221781220Y-93337853D01*
X221810245Y-93274297D01*
X221844531Y-93246668D01*
X222064047Y-93126803D01*
X222206561Y-93020116D01*
X222206562Y-93020115D01*
X221304025Y-92117577D01*
X221335258Y-92104641D01*
X221458097Y-92022563D01*
X221562563Y-91918097D01*
X221644641Y-91795258D01*
X221657578Y-91764025D01*
X222560115Y-92666562D01*
X222560116Y-92666561D01*
X222666803Y-92524047D01*
X222803908Y-92272958D01*
X222903890Y-92004895D01*
X222964699Y-91725362D01*
X222985109Y-91440001D01*
X222985109Y-91439998D01*
X222964699Y-91154637D01*
X222903890Y-90875104D01*
X222803908Y-90607041D01*
X222666808Y-90355961D01*
X222666807Y-90355960D01*
X222560115Y-90213436D01*
X221657577Y-91115973D01*
X221644641Y-91084742D01*
X221562563Y-90961903D01*
X221458097Y-90857437D01*
X221335258Y-90775359D01*
X221304024Y-90762421D01*
X222206562Y-89859883D01*
X222206561Y-89859882D01*
X222064046Y-89753196D01*
X222064038Y-89753191D01*
X221812957Y-89616091D01*
X221812958Y-89616091D01*
X221544895Y-89516109D01*
X221265362Y-89455300D01*
X220980001Y-89434891D01*
X220979999Y-89434891D01*
X220694637Y-89455300D01*
X220415104Y-89516109D01*
X220147041Y-89616091D01*
X219895961Y-89753191D01*
X219895953Y-89753196D01*
X219753437Y-89859882D01*
X219753436Y-89859883D01*
X220655975Y-90762421D01*
X220624742Y-90775359D01*
X220501903Y-90857437D01*
X220397437Y-90961903D01*
X220315359Y-91084742D01*
X220302421Y-91115974D01*
X219399883Y-90213436D01*
X219399882Y-90213437D01*
X219293196Y-90355953D01*
X219293191Y-90355961D01*
X219156091Y-90607041D01*
X219056109Y-90875104D01*
X218995300Y-91154637D01*
X218974891Y-91439998D01*
X218974891Y-91440001D01*
X218995300Y-91725362D01*
X219056109Y-92004895D01*
X219156091Y-92272958D01*
X219293191Y-92524038D01*
X219293196Y-92524046D01*
X219399882Y-92666561D01*
X219399883Y-92666562D01*
X220302421Y-91764024D01*
X220315359Y-91795258D01*
X220397437Y-91918097D01*
X220501903Y-92022563D01*
X220624742Y-92104641D01*
X220655974Y-92117578D01*
X219753436Y-93020115D01*
X219895960Y-93126807D01*
X219895961Y-93126808D01*
X220115469Y-93246668D01*
X220164874Y-93296073D01*
X220179726Y-93364346D01*
X220155309Y-93429810D01*
X220099376Y-93471682D01*
X220056042Y-93479500D01*
X211745002Y-93479500D01*
X211677963Y-93459815D01*
X211632208Y-93407011D01*
X211622264Y-93337853D01*
X211651289Y-93274297D01*
X211685575Y-93246668D01*
X211821427Y-93172486D01*
X211904315Y-93127226D01*
X212133395Y-92955739D01*
X212335739Y-92753395D01*
X212507226Y-92524315D01*
X212644367Y-92273161D01*
X212744369Y-92005046D01*
X212784555Y-91820315D01*
X212805195Y-91725433D01*
X212805195Y-91725432D01*
X212805196Y-91725428D01*
X212825610Y-91440000D01*
X212805196Y-91154572D01*
X212790005Y-91084742D01*
X212744371Y-90874962D01*
X212744370Y-90874960D01*
X212744369Y-90874954D01*
X212644367Y-90606839D01*
X212594308Y-90515164D01*
X212507226Y-90355685D01*
X212507224Y-90355682D01*
X212335745Y-90126612D01*
X212335729Y-90126594D01*
X212133405Y-89924270D01*
X212133387Y-89924254D01*
X211904317Y-89752775D01*
X211904309Y-89752770D01*
X211653166Y-89615635D01*
X211653167Y-89615635D01*
X211545915Y-89575632D01*
X211385046Y-89515631D01*
X211385043Y-89515630D01*
X211385037Y-89515628D01*
X211105433Y-89454804D01*
X210820001Y-89434390D01*
X210819999Y-89434390D01*
X210534566Y-89454804D01*
X210254962Y-89515628D01*
X209986833Y-89615635D01*
X209735690Y-89752770D01*
X209735682Y-89752775D01*
X209506612Y-89924254D01*
X209506594Y-89924270D01*
X209304270Y-90126594D01*
X209304254Y-90126612D01*
X209132775Y-90355682D01*
X209132774Y-90355685D01*
X209122268Y-90374925D01*
X209072863Y-90424331D01*
X209013435Y-90439500D01*
X203665782Y-90439500D01*
X203598743Y-90419815D01*
X203578101Y-90403181D01*
X202966819Y-89791899D01*
X202933334Y-89730576D01*
X202930500Y-89704218D01*
X202930500Y-83427588D01*
X202950185Y-83360549D01*
X202952925Y-83356465D01*
X203060568Y-83202734D01*
X203156739Y-82996496D01*
X203215635Y-82776692D01*
X203235468Y-82550000D01*
X203235468Y-82549998D01*
X210784532Y-82549998D01*
X210784532Y-82550001D01*
X210804364Y-82776686D01*
X210804366Y-82776697D01*
X210863258Y-82996488D01*
X210863261Y-82996497D01*
X210959431Y-83202732D01*
X210959432Y-83202734D01*
X211089954Y-83389141D01*
X211250858Y-83550045D01*
X211250861Y-83550047D01*
X211437266Y-83680568D01*
X211643504Y-83776739D01*
X211863308Y-83835635D01*
X212025230Y-83849801D01*
X212089998Y-83855468D01*
X212090000Y-83855468D01*
X212090002Y-83855468D01*
X212146673Y-83850509D01*
X212316692Y-83835635D01*
X212536496Y-83776739D01*
X212742734Y-83680568D01*
X212929139Y-83550047D01*
X213090047Y-83389139D01*
X213220568Y-83202734D01*
X213316739Y-82996496D01*
X213375635Y-82776692D01*
X213395468Y-82550000D01*
X213395468Y-82549998D01*
X217174532Y-82549998D01*
X217174532Y-82550001D01*
X217194364Y-82776686D01*
X217194366Y-82776697D01*
X217253258Y-82996488D01*
X217253261Y-82996497D01*
X217349431Y-83202732D01*
X217349432Y-83202734D01*
X217479954Y-83389141D01*
X217640858Y-83550045D01*
X217640861Y-83550047D01*
X217827266Y-83680568D01*
X218033504Y-83776739D01*
X218253308Y-83835635D01*
X218415230Y-83849801D01*
X218479998Y-83855468D01*
X218480000Y-83855468D01*
X218480002Y-83855468D01*
X218536673Y-83850509D01*
X218706692Y-83835635D01*
X218926496Y-83776739D01*
X219132734Y-83680568D01*
X219319139Y-83550047D01*
X219480047Y-83389139D01*
X219610568Y-83202734D01*
X219706739Y-82996496D01*
X219765635Y-82776692D01*
X219785468Y-82550000D01*
X219785468Y-82549997D01*
X222175034Y-82549997D01*
X222175034Y-82550002D01*
X222194858Y-82776599D01*
X222194860Y-82776610D01*
X222253730Y-82996317D01*
X222253735Y-82996331D01*
X222349863Y-83202478D01*
X222400974Y-83275472D01*
X223080000Y-82596446D01*
X223080000Y-82602661D01*
X223107259Y-82704394D01*
X223159920Y-82795606D01*
X223234394Y-82870080D01*
X223325606Y-82922741D01*
X223427339Y-82950000D01*
X223433553Y-82950000D01*
X222754526Y-83629025D01*
X222827513Y-83680132D01*
X222827521Y-83680136D01*
X223033668Y-83776264D01*
X223033682Y-83776269D01*
X223253389Y-83835139D01*
X223253400Y-83835141D01*
X223479998Y-83854966D01*
X223480002Y-83854966D01*
X223706599Y-83835141D01*
X223706610Y-83835139D01*
X223926317Y-83776269D01*
X223926331Y-83776264D01*
X224132478Y-83680136D01*
X224205471Y-83629024D01*
X223526447Y-82950000D01*
X223532661Y-82950000D01*
X223634394Y-82922741D01*
X223725606Y-82870080D01*
X223800080Y-82795606D01*
X223852741Y-82704394D01*
X223880000Y-82602661D01*
X223880000Y-82596447D01*
X224559024Y-83275471D01*
X224610136Y-83202478D01*
X224706264Y-82996331D01*
X224706269Y-82996317D01*
X224765139Y-82776610D01*
X224765141Y-82776599D01*
X224784966Y-82550002D01*
X224784966Y-82549997D01*
X224765141Y-82323400D01*
X224765139Y-82323389D01*
X224706269Y-82103682D01*
X224706264Y-82103668D01*
X224610136Y-81897521D01*
X224610132Y-81897513D01*
X224559025Y-81824526D01*
X223880000Y-82503551D01*
X223880000Y-82497339D01*
X223852741Y-82395606D01*
X223800080Y-82304394D01*
X223725606Y-82229920D01*
X223634394Y-82177259D01*
X223532661Y-82150000D01*
X223526448Y-82150000D01*
X224205472Y-81470974D01*
X224132478Y-81419863D01*
X223926331Y-81323735D01*
X223926317Y-81323730D01*
X223706610Y-81264860D01*
X223706599Y-81264858D01*
X223480002Y-81245034D01*
X223479998Y-81245034D01*
X223253400Y-81264858D01*
X223253389Y-81264860D01*
X223033682Y-81323730D01*
X223033673Y-81323734D01*
X222827516Y-81419866D01*
X222827512Y-81419868D01*
X222754526Y-81470973D01*
X222754526Y-81470974D01*
X223433553Y-82150000D01*
X223427339Y-82150000D01*
X223325606Y-82177259D01*
X223234394Y-82229920D01*
X223159920Y-82304394D01*
X223107259Y-82395606D01*
X223080000Y-82497339D01*
X223080000Y-82503552D01*
X222400974Y-81824526D01*
X222400973Y-81824526D01*
X222349868Y-81897512D01*
X222349866Y-81897516D01*
X222253734Y-82103673D01*
X222253730Y-82103682D01*
X222194860Y-82323389D01*
X222194858Y-82323400D01*
X222175034Y-82549997D01*
X219785468Y-82549997D01*
X219765635Y-82323308D01*
X219706739Y-82103504D01*
X219610568Y-81897266D01*
X219480047Y-81710861D01*
X219480045Y-81710858D01*
X219319141Y-81549954D01*
X219132734Y-81419432D01*
X219132732Y-81419431D01*
X218926497Y-81323261D01*
X218926488Y-81323258D01*
X218706697Y-81264366D01*
X218706693Y-81264365D01*
X218706692Y-81264365D01*
X218706691Y-81264364D01*
X218706686Y-81264364D01*
X218480002Y-81244532D01*
X218479998Y-81244532D01*
X218253313Y-81264364D01*
X218253302Y-81264366D01*
X218033511Y-81323258D01*
X218033502Y-81323261D01*
X217827267Y-81419431D01*
X217827265Y-81419432D01*
X217640858Y-81549954D01*
X217479954Y-81710858D01*
X217349432Y-81897265D01*
X217349431Y-81897267D01*
X217253261Y-82103502D01*
X217253258Y-82103511D01*
X217194366Y-82323302D01*
X217194364Y-82323313D01*
X217174532Y-82549998D01*
X213395468Y-82549998D01*
X213375635Y-82323308D01*
X213316739Y-82103504D01*
X213220568Y-81897266D01*
X213090047Y-81710861D01*
X213090045Y-81710858D01*
X212929141Y-81549954D01*
X212742734Y-81419432D01*
X212742732Y-81419431D01*
X212536497Y-81323261D01*
X212536488Y-81323258D01*
X212316697Y-81264366D01*
X212316693Y-81264365D01*
X212316692Y-81264365D01*
X212316691Y-81264364D01*
X212316686Y-81264364D01*
X212090002Y-81244532D01*
X212089998Y-81244532D01*
X211863313Y-81264364D01*
X211863302Y-81264366D01*
X211643511Y-81323258D01*
X211643502Y-81323261D01*
X211437267Y-81419431D01*
X211437265Y-81419432D01*
X211250858Y-81549954D01*
X211089954Y-81710858D01*
X210959432Y-81897265D01*
X210959431Y-81897267D01*
X210863261Y-82103502D01*
X210863258Y-82103511D01*
X210804366Y-82323302D01*
X210804364Y-82323313D01*
X210784532Y-82549998D01*
X203235468Y-82549998D01*
X203215635Y-82323308D01*
X203156739Y-82103504D01*
X203060568Y-81897266D01*
X202930047Y-81710861D01*
X202930045Y-81710858D01*
X202769141Y-81549954D01*
X202582734Y-81419432D01*
X202582732Y-81419431D01*
X202376497Y-81323261D01*
X202376488Y-81323258D01*
X202156697Y-81264366D01*
X202156693Y-81264365D01*
X202156692Y-81264365D01*
X202156691Y-81264364D01*
X202156686Y-81264364D01*
X201930002Y-81244532D01*
X201929998Y-81244532D01*
X201703313Y-81264364D01*
X201703302Y-81264366D01*
X201483511Y-81323258D01*
X201483502Y-81323261D01*
X201277267Y-81419431D01*
X201277265Y-81419432D01*
X201090858Y-81549954D01*
X200929954Y-81710858D01*
X200799432Y-81897265D01*
X200799431Y-81897267D01*
X200703261Y-82103502D01*
X200703258Y-82103511D01*
X200644366Y-82323302D01*
X200644364Y-82323313D01*
X200624532Y-82549998D01*
X200624532Y-82550001D01*
X200644364Y-82776686D01*
X200644366Y-82776697D01*
X200703258Y-82996488D01*
X200703261Y-82996497D01*
X200799431Y-83202732D01*
X200799432Y-83202734D01*
X200907075Y-83356465D01*
X200929402Y-83422671D01*
X200929500Y-83427588D01*
X200929500Y-90268541D01*
X200929500Y-90268543D01*
X200929499Y-90268543D01*
X200944674Y-90344828D01*
X200946833Y-90355682D01*
X200946834Y-90355684D01*
X200946834Y-90355685D01*
X200967947Y-90461833D01*
X200967949Y-90461836D01*
X200990038Y-90515165D01*
X201008892Y-90560683D01*
X201043366Y-90643911D01*
X201043371Y-90643920D01*
X201152860Y-90807781D01*
X201152863Y-90807785D01*
X201296537Y-90951459D01*
X201296559Y-90951479D01*
X202419735Y-92074655D01*
X202419764Y-92074686D01*
X202562214Y-92217136D01*
X202562218Y-92217139D01*
X202726079Y-92326628D01*
X202726092Y-92326635D01*
X202854833Y-92379961D01*
X202897744Y-92397735D01*
X202908164Y-92402051D01*
X203004812Y-92421275D01*
X203053135Y-92430887D01*
X203101458Y-92440500D01*
X203101459Y-92440500D01*
X203101460Y-92440500D01*
X203298540Y-92440500D01*
X209013435Y-92440500D01*
X209080474Y-92460185D01*
X209122268Y-92505075D01*
X209132770Y-92524309D01*
X209132775Y-92524317D01*
X209304254Y-92753387D01*
X209304270Y-92753405D01*
X209506594Y-92955729D01*
X209506612Y-92955745D01*
X209735682Y-93127224D01*
X209735690Y-93127229D01*
X209954425Y-93246668D01*
X210003830Y-93296073D01*
X210018682Y-93364346D01*
X209994265Y-93429811D01*
X209938331Y-93471682D01*
X209894998Y-93479500D01*
X166025002Y-93479500D01*
X165957963Y-93459815D01*
X165912208Y-93407011D01*
X165902264Y-93337853D01*
X165931289Y-93274297D01*
X165965575Y-93246668D01*
X166101427Y-93172486D01*
X166184315Y-93127226D01*
X166413395Y-92955739D01*
X166615739Y-92753395D01*
X166787226Y-92524315D01*
X166797732Y-92505075D01*
X166847137Y-92455669D01*
X166906565Y-92440500D01*
X174088542Y-92440500D01*
X174107870Y-92436655D01*
X174185188Y-92421275D01*
X174281836Y-92402051D01*
X174335165Y-92379961D01*
X174463914Y-92326632D01*
X174627782Y-92217139D01*
X174767139Y-92077782D01*
X174767140Y-92077779D01*
X174774206Y-92070714D01*
X174774209Y-92070710D01*
X175897778Y-90947141D01*
X175897782Y-90947139D01*
X176037139Y-90807782D01*
X176146632Y-90643914D01*
X176199961Y-90515165D01*
X176222051Y-90461836D01*
X176243166Y-90355685D01*
X176256652Y-90287888D01*
X176260500Y-90268543D01*
X176260500Y-89004675D01*
X176260501Y-89004654D01*
X176260501Y-88801459D01*
X176255972Y-88778693D01*
X176262199Y-88709101D01*
X176305061Y-88653923D01*
X176370950Y-88630678D01*
X176377589Y-88630500D01*
X180302547Y-88630500D01*
X180369586Y-88650185D01*
X180396833Y-88673965D01*
X180471561Y-88761460D01*
X180474776Y-88765224D01*
X180666343Y-88928838D01*
X180666346Y-88928839D01*
X180881140Y-89060466D01*
X181091637Y-89147656D01*
X181113889Y-89156873D01*
X181358852Y-89215683D01*
X181610000Y-89235449D01*
X181861148Y-89215683D01*
X182106111Y-89156873D01*
X182338859Y-89060466D01*
X182553659Y-88928836D01*
X182745224Y-88765224D01*
X182908836Y-88573659D01*
X183040466Y-88358859D01*
X183136873Y-88126111D01*
X183195683Y-87881148D01*
X183215449Y-87630000D01*
X183195683Y-87378852D01*
X183136873Y-87133889D01*
X183072104Y-86977521D01*
X183040466Y-86901140D01*
X182908839Y-86686346D01*
X182908838Y-86686343D01*
X182860289Y-86629500D01*
X182745224Y-86494776D01*
X182730423Y-86482135D01*
X190169500Y-86482135D01*
X190169500Y-88777870D01*
X190169501Y-88777876D01*
X190175908Y-88837483D01*
X190226202Y-88972328D01*
X190226206Y-88972335D01*
X190312452Y-89087544D01*
X190312455Y-89087547D01*
X190427664Y-89173793D01*
X190427671Y-89173797D01*
X190562517Y-89224091D01*
X190562516Y-89224091D01*
X190569444Y-89224835D01*
X190622127Y-89230500D01*
X192917872Y-89230499D01*
X192977483Y-89224091D01*
X193112331Y-89173796D01*
X193227546Y-89087546D01*
X193313796Y-88972331D01*
X193364091Y-88837483D01*
X193370500Y-88777873D01*
X193370499Y-86482128D01*
X193364091Y-86422517D01*
X193357085Y-86403734D01*
X193313797Y-86287671D01*
X193313793Y-86287664D01*
X193227547Y-86172455D01*
X193227544Y-86172452D01*
X193112335Y-86086206D01*
X193112328Y-86086202D01*
X192977482Y-86035908D01*
X192977483Y-86035908D01*
X192917883Y-86029501D01*
X192917881Y-86029500D01*
X192917873Y-86029500D01*
X192917864Y-86029500D01*
X190622129Y-86029500D01*
X190622123Y-86029501D01*
X190562516Y-86035908D01*
X190427671Y-86086202D01*
X190427664Y-86086206D01*
X190312455Y-86172452D01*
X190312452Y-86172455D01*
X190226206Y-86287664D01*
X190226202Y-86287671D01*
X190175908Y-86422517D01*
X190169501Y-86482116D01*
X190169501Y-86482123D01*
X190169500Y-86482135D01*
X182730423Y-86482135D01*
X182569693Y-86344858D01*
X182553656Y-86331161D01*
X182553653Y-86331160D01*
X182338859Y-86199533D01*
X182106110Y-86103126D01*
X181861151Y-86044317D01*
X181610000Y-86024551D01*
X181358848Y-86044317D01*
X181113889Y-86103126D01*
X180881140Y-86199533D01*
X180666346Y-86331160D01*
X180666343Y-86331161D01*
X180474776Y-86494775D01*
X180439263Y-86536356D01*
X180396835Y-86586032D01*
X180338331Y-86624225D01*
X180302547Y-86629500D01*
X176344500Y-86629500D01*
X176277461Y-86609815D01*
X176231706Y-86557011D01*
X176220500Y-86505500D01*
X176220500Y-78807180D01*
X176240185Y-78740141D01*
X176270187Y-78707914D01*
X176377546Y-78627546D01*
X176463796Y-78512331D01*
X176514091Y-78377483D01*
X176520500Y-78317873D01*
X176520499Y-77469998D01*
X193004532Y-77469998D01*
X193004532Y-77470001D01*
X193024364Y-77696686D01*
X193024366Y-77696697D01*
X193083258Y-77916488D01*
X193083261Y-77916497D01*
X193179431Y-78122732D01*
X193179432Y-78122734D01*
X193309954Y-78309141D01*
X193470858Y-78470045D01*
X193470861Y-78470047D01*
X193657266Y-78600568D01*
X193863504Y-78696739D01*
X194083308Y-78755635D01*
X194245230Y-78769801D01*
X194309998Y-78775468D01*
X194310000Y-78775468D01*
X194310002Y-78775468D01*
X194366807Y-78770498D01*
X194536692Y-78755635D01*
X194756496Y-78696739D01*
X194962734Y-78600568D01*
X195149139Y-78470047D01*
X195310047Y-78309139D01*
X195440568Y-78122734D01*
X195536739Y-77916496D01*
X195595635Y-77696692D01*
X195615468Y-77470000D01*
X195615468Y-77469998D01*
X203164532Y-77469998D01*
X203164532Y-77470001D01*
X203184364Y-77696686D01*
X203184366Y-77696697D01*
X203243258Y-77916488D01*
X203243261Y-77916497D01*
X203339431Y-78122732D01*
X203339432Y-78122734D01*
X203469954Y-78309141D01*
X203630858Y-78470045D01*
X203630861Y-78470047D01*
X203817266Y-78600568D01*
X204023504Y-78696739D01*
X204243308Y-78755635D01*
X204405230Y-78769801D01*
X204469998Y-78775468D01*
X204470000Y-78775468D01*
X204470002Y-78775468D01*
X204526807Y-78770498D01*
X204696692Y-78755635D01*
X204916496Y-78696739D01*
X205122734Y-78600568D01*
X205309139Y-78470047D01*
X205470047Y-78309139D01*
X205600568Y-78122734D01*
X205696739Y-77916496D01*
X205755635Y-77696692D01*
X205775468Y-77470000D01*
X205755635Y-77243308D01*
X205696739Y-77023504D01*
X205600568Y-76817266D01*
X205470047Y-76630861D01*
X205470045Y-76630858D01*
X205461322Y-76622135D01*
X213329500Y-76622135D01*
X213329500Y-78317870D01*
X213329501Y-78317876D01*
X213335908Y-78377483D01*
X213386202Y-78512328D01*
X213386206Y-78512335D01*
X213472452Y-78627544D01*
X213472455Y-78627547D01*
X213587664Y-78713793D01*
X213587671Y-78713797D01*
X213722517Y-78764091D01*
X213722516Y-78764091D01*
X213729444Y-78764835D01*
X213782127Y-78770500D01*
X215477872Y-78770499D01*
X215537483Y-78764091D01*
X215672331Y-78713796D01*
X215787546Y-78627546D01*
X215873796Y-78512331D01*
X215924091Y-78377483D01*
X215930500Y-78317873D01*
X215930499Y-76622128D01*
X215924091Y-76562517D01*
X215889567Y-76469954D01*
X215873797Y-76427671D01*
X215873793Y-76427664D01*
X215787547Y-76312455D01*
X215787544Y-76312452D01*
X215672335Y-76226206D01*
X215672328Y-76226202D01*
X215537482Y-76175908D01*
X215537483Y-76175908D01*
X215477883Y-76169501D01*
X215477881Y-76169500D01*
X215477873Y-76169500D01*
X215477864Y-76169500D01*
X213782129Y-76169500D01*
X213782123Y-76169501D01*
X213722516Y-76175908D01*
X213587671Y-76226202D01*
X213587664Y-76226206D01*
X213472455Y-76312452D01*
X213472452Y-76312455D01*
X213386206Y-76427664D01*
X213386202Y-76427671D01*
X213335908Y-76562517D01*
X213329501Y-76622116D01*
X213329501Y-76622123D01*
X213329500Y-76622135D01*
X205461322Y-76622135D01*
X205309141Y-76469954D01*
X205122734Y-76339432D01*
X205122732Y-76339431D01*
X204916497Y-76243261D01*
X204916488Y-76243258D01*
X204696697Y-76184366D01*
X204696693Y-76184365D01*
X204696692Y-76184365D01*
X204696691Y-76184364D01*
X204696686Y-76184364D01*
X204470002Y-76164532D01*
X204469998Y-76164532D01*
X204243313Y-76184364D01*
X204243302Y-76184366D01*
X204023511Y-76243258D01*
X204023502Y-76243261D01*
X203817267Y-76339431D01*
X203817265Y-76339432D01*
X203630858Y-76469954D01*
X203469954Y-76630858D01*
X203339432Y-76817265D01*
X203339431Y-76817267D01*
X203243261Y-77023502D01*
X203243258Y-77023511D01*
X203184366Y-77243302D01*
X203184364Y-77243313D01*
X203164532Y-77469998D01*
X195615468Y-77469998D01*
X195595635Y-77243308D01*
X195536739Y-77023504D01*
X195440568Y-76817266D01*
X195310047Y-76630861D01*
X195310045Y-76630858D01*
X195149141Y-76469954D01*
X194962734Y-76339432D01*
X194962732Y-76339431D01*
X194756497Y-76243261D01*
X194756488Y-76243258D01*
X194536697Y-76184366D01*
X194536693Y-76184365D01*
X194536692Y-76184365D01*
X194536691Y-76184364D01*
X194536686Y-76184364D01*
X194310002Y-76164532D01*
X194309998Y-76164532D01*
X194083313Y-76184364D01*
X194083302Y-76184366D01*
X193863511Y-76243258D01*
X193863502Y-76243261D01*
X193657267Y-76339431D01*
X193657265Y-76339432D01*
X193470858Y-76469954D01*
X193309954Y-76630858D01*
X193179432Y-76817265D01*
X193179431Y-76817267D01*
X193083261Y-77023502D01*
X193083258Y-77023511D01*
X193024366Y-77243302D01*
X193024364Y-77243313D01*
X193004532Y-77469998D01*
X176520499Y-77469998D01*
X176520499Y-76622128D01*
X176514091Y-76562517D01*
X176479567Y-76469954D01*
X176463797Y-76427671D01*
X176463793Y-76427664D01*
X176377547Y-76312455D01*
X176270188Y-76232085D01*
X176228318Y-76176151D01*
X176220500Y-76132819D01*
X176220500Y-73969997D01*
X213325034Y-73969997D01*
X213325034Y-73970002D01*
X213344858Y-74196599D01*
X213344860Y-74196610D01*
X213403730Y-74416317D01*
X213403735Y-74416331D01*
X213499863Y-74622478D01*
X213550974Y-74695472D01*
X214230000Y-74016446D01*
X214230000Y-74022661D01*
X214257259Y-74124394D01*
X214309920Y-74215606D01*
X214384394Y-74290080D01*
X214475606Y-74342741D01*
X214577339Y-74370000D01*
X214583553Y-74370000D01*
X213904526Y-75049025D01*
X213977513Y-75100132D01*
X213977521Y-75100136D01*
X214183668Y-75196264D01*
X214183682Y-75196269D01*
X214403389Y-75255139D01*
X214403400Y-75255141D01*
X214629998Y-75274966D01*
X214630002Y-75274966D01*
X214856599Y-75255141D01*
X214856610Y-75255139D01*
X215076317Y-75196269D01*
X215076331Y-75196264D01*
X215282478Y-75100136D01*
X215355471Y-75049024D01*
X214676447Y-74370000D01*
X214682661Y-74370000D01*
X214784394Y-74342741D01*
X214875606Y-74290080D01*
X214950080Y-74215606D01*
X215002741Y-74124394D01*
X215030000Y-74022661D01*
X215030000Y-74016447D01*
X215709024Y-74695471D01*
X215760136Y-74622478D01*
X215856264Y-74416331D01*
X215856269Y-74416317D01*
X215915139Y-74196610D01*
X215915141Y-74196599D01*
X215934966Y-73970002D01*
X215934966Y-73969997D01*
X215915141Y-73743400D01*
X215915139Y-73743389D01*
X215856269Y-73523682D01*
X215856264Y-73523668D01*
X215760136Y-73317521D01*
X215760132Y-73317513D01*
X215709025Y-73244526D01*
X215030000Y-73923551D01*
X215030000Y-73917339D01*
X215002741Y-73815606D01*
X214950080Y-73724394D01*
X214875606Y-73649920D01*
X214784394Y-73597259D01*
X214682661Y-73570000D01*
X214676448Y-73570000D01*
X215355472Y-72890974D01*
X215282478Y-72839863D01*
X215076331Y-72743735D01*
X215076317Y-72743730D01*
X214856610Y-72684860D01*
X214856599Y-72684858D01*
X214630002Y-72665034D01*
X214629998Y-72665034D01*
X214403400Y-72684858D01*
X214403389Y-72684860D01*
X214183682Y-72743730D01*
X214183673Y-72743734D01*
X213977516Y-72839866D01*
X213977512Y-72839868D01*
X213904526Y-72890973D01*
X213904526Y-72890974D01*
X214583553Y-73570000D01*
X214577339Y-73570000D01*
X214475606Y-73597259D01*
X214384394Y-73649920D01*
X214309920Y-73724394D01*
X214257259Y-73815606D01*
X214230000Y-73917339D01*
X214230000Y-73923552D01*
X213550974Y-73244526D01*
X213550973Y-73244526D01*
X213499868Y-73317512D01*
X213499866Y-73317516D01*
X213403734Y-73523673D01*
X213403730Y-73523682D01*
X213344860Y-73743389D01*
X213344858Y-73743400D01*
X213325034Y-73969997D01*
X176220500Y-73969997D01*
X176220500Y-72389999D01*
X181874659Y-72389999D01*
X181878903Y-72433090D01*
X181879500Y-72445244D01*
X181879500Y-72488544D01*
X181887945Y-72531006D01*
X181889730Y-72543035D01*
X181893975Y-72586130D01*
X181893976Y-72586134D01*
X181906547Y-72627575D01*
X181909503Y-72639378D01*
X181917946Y-72681827D01*
X181917948Y-72681834D01*
X181934517Y-72721834D01*
X181938612Y-72733277D01*
X181951186Y-72774727D01*
X181951187Y-72774729D01*
X181971597Y-72812913D01*
X181976800Y-72823915D01*
X181993368Y-72863914D01*
X181993370Y-72863918D01*
X182017425Y-72899918D01*
X182023683Y-72910358D01*
X182044088Y-72948535D01*
X182044094Y-72948543D01*
X182071552Y-72982002D01*
X182078799Y-72991772D01*
X182102862Y-73027783D01*
X182102865Y-73027787D01*
X182133479Y-73058401D01*
X182141651Y-73067416D01*
X182169118Y-73100884D01*
X182202581Y-73128346D01*
X182211599Y-73136520D01*
X182242214Y-73167136D01*
X182242219Y-73167140D01*
X182278219Y-73191194D01*
X182287988Y-73198438D01*
X182321462Y-73225910D01*
X182321464Y-73225911D01*
X182359640Y-73246316D01*
X182370078Y-73252572D01*
X182406086Y-73276632D01*
X182446095Y-73293203D01*
X182457091Y-73298404D01*
X182495273Y-73318814D01*
X182536710Y-73331383D01*
X182548160Y-73335480D01*
X182588165Y-73352051D01*
X182630640Y-73360499D01*
X182642414Y-73363448D01*
X182683868Y-73376024D01*
X182726964Y-73380268D01*
X182738990Y-73382052D01*
X182769480Y-73388117D01*
X182781458Y-73390500D01*
X182781459Y-73390500D01*
X182824756Y-73390500D01*
X182836909Y-73391096D01*
X182880000Y-73395341D01*
X182923090Y-73391096D01*
X182935244Y-73390500D01*
X190892412Y-73390500D01*
X190959451Y-73410185D01*
X190963523Y-73412917D01*
X191117266Y-73520568D01*
X191323504Y-73616739D01*
X191543308Y-73675635D01*
X191705230Y-73689801D01*
X191769998Y-73695468D01*
X191770000Y-73695468D01*
X191770002Y-73695468D01*
X191826673Y-73690509D01*
X191996692Y-73675635D01*
X192216496Y-73616739D01*
X192422734Y-73520568D01*
X192609139Y-73390047D01*
X192770047Y-73229139D01*
X192900568Y-73042734D01*
X192996739Y-72836496D01*
X193055635Y-72616692D01*
X193075468Y-72390000D01*
X193075468Y-72389998D01*
X200624532Y-72389998D01*
X200624532Y-72390001D01*
X200644364Y-72616686D01*
X200644366Y-72616697D01*
X200703258Y-72836488D01*
X200703261Y-72836497D01*
X200799431Y-73042732D01*
X200799432Y-73042734D01*
X200929954Y-73229141D01*
X201090858Y-73390045D01*
X201098420Y-73395340D01*
X201277266Y-73520568D01*
X201483504Y-73616739D01*
X201703308Y-73675635D01*
X201865230Y-73689801D01*
X201929998Y-73695468D01*
X201930000Y-73695468D01*
X201930002Y-73695468D01*
X201986673Y-73690509D01*
X202156692Y-73675635D01*
X202376496Y-73616739D01*
X202582734Y-73520568D01*
X202769139Y-73390047D01*
X202930047Y-73229139D01*
X203060568Y-73042734D01*
X203156739Y-72836496D01*
X203215635Y-72616692D01*
X203235468Y-72390000D01*
X203215635Y-72163308D01*
X203156739Y-71943504D01*
X203060568Y-71737266D01*
X202930047Y-71550861D01*
X202930045Y-71550858D01*
X202769141Y-71389954D01*
X202582734Y-71259432D01*
X202582732Y-71259431D01*
X202376497Y-71163261D01*
X202376488Y-71163258D01*
X202156697Y-71104366D01*
X202156693Y-71104365D01*
X202156692Y-71104365D01*
X202156691Y-71104364D01*
X202156686Y-71104364D01*
X201930002Y-71084532D01*
X201929998Y-71084532D01*
X201703313Y-71104364D01*
X201703302Y-71104366D01*
X201483511Y-71163258D01*
X201483502Y-71163261D01*
X201277267Y-71259431D01*
X201277265Y-71259432D01*
X201090858Y-71389954D01*
X200929954Y-71550858D01*
X200799432Y-71737265D01*
X200799431Y-71737267D01*
X200703261Y-71943502D01*
X200703258Y-71943511D01*
X200644366Y-72163302D01*
X200644364Y-72163313D01*
X200624532Y-72389998D01*
X193075468Y-72389998D01*
X193055635Y-72163308D01*
X192996739Y-71943504D01*
X192900568Y-71737266D01*
X192770047Y-71550861D01*
X192770045Y-71550858D01*
X192609141Y-71389954D01*
X192422734Y-71259432D01*
X192422732Y-71259431D01*
X192216497Y-71163261D01*
X192216488Y-71163258D01*
X191996697Y-71104366D01*
X191996693Y-71104365D01*
X191996692Y-71104365D01*
X191996691Y-71104364D01*
X191996686Y-71104364D01*
X191770002Y-71084532D01*
X191769998Y-71084532D01*
X191543313Y-71104364D01*
X191543302Y-71104366D01*
X191323511Y-71163258D01*
X191323502Y-71163261D01*
X191117267Y-71259431D01*
X191117265Y-71259432D01*
X190963535Y-71367075D01*
X190897329Y-71389402D01*
X190892412Y-71389500D01*
X182935244Y-71389500D01*
X182923090Y-71388903D01*
X182880000Y-71384659D01*
X182836910Y-71388903D01*
X182824756Y-71389500D01*
X182781453Y-71389500D01*
X182738991Y-71397945D01*
X182726963Y-71399730D01*
X182683867Y-71403976D01*
X182642427Y-71416546D01*
X182630626Y-71419502D01*
X182588166Y-71427948D01*
X182588161Y-71427949D01*
X182548159Y-71444518D01*
X182536707Y-71448616D01*
X182495272Y-71461186D01*
X182457091Y-71481594D01*
X182446093Y-71486795D01*
X182406091Y-71503364D01*
X182370080Y-71527426D01*
X182359645Y-71533680D01*
X182321465Y-71554087D01*
X182321460Y-71554091D01*
X182287990Y-71581557D01*
X182278225Y-71588799D01*
X182242225Y-71612855D01*
X182242219Y-71612860D01*
X182211595Y-71643483D01*
X182202584Y-71651650D01*
X182169117Y-71679117D01*
X182141650Y-71712584D01*
X182133483Y-71721595D01*
X182102860Y-71752219D01*
X182102855Y-71752225D01*
X182078799Y-71788225D01*
X182071557Y-71797990D01*
X182044091Y-71831460D01*
X182044087Y-71831465D01*
X182023680Y-71869645D01*
X182017426Y-71880080D01*
X181993364Y-71916091D01*
X181976795Y-71956093D01*
X181971594Y-71967091D01*
X181951186Y-72005272D01*
X181938616Y-72046707D01*
X181934518Y-72058159D01*
X181917949Y-72098161D01*
X181917948Y-72098166D01*
X181909502Y-72140626D01*
X181906546Y-72152427D01*
X181893976Y-72193867D01*
X181889730Y-72236963D01*
X181887945Y-72248991D01*
X181879500Y-72291453D01*
X181879500Y-72334754D01*
X181878903Y-72346907D01*
X181874659Y-72389999D01*
X176220500Y-72389999D01*
X176220500Y-67464499D01*
X176240185Y-67397460D01*
X176292989Y-67351705D01*
X176344500Y-67340499D01*
X176640522Y-67340499D01*
X176640523Y-67340499D01*
X176700134Y-67334091D01*
X176834982Y-67283796D01*
X176853415Y-67269997D01*
X204435034Y-67269997D01*
X204435034Y-67270002D01*
X204454858Y-67496599D01*
X204454860Y-67496610D01*
X204513730Y-67716317D01*
X204513735Y-67716331D01*
X204609863Y-67922478D01*
X204660974Y-67995472D01*
X205340000Y-67316446D01*
X205340000Y-67322661D01*
X205367259Y-67424394D01*
X205419920Y-67515606D01*
X205494394Y-67590080D01*
X205585606Y-67642741D01*
X205687339Y-67670000D01*
X205693553Y-67670000D01*
X205014526Y-68349025D01*
X205087513Y-68400132D01*
X205087521Y-68400136D01*
X205293668Y-68496264D01*
X205293682Y-68496269D01*
X205513389Y-68555139D01*
X205513400Y-68555141D01*
X205739998Y-68574966D01*
X205740002Y-68574966D01*
X205966599Y-68555141D01*
X205966610Y-68555139D01*
X206186317Y-68496269D01*
X206186331Y-68496264D01*
X206392478Y-68400136D01*
X206465471Y-68349024D01*
X205786447Y-67670000D01*
X205792661Y-67670000D01*
X205894394Y-67642741D01*
X205985606Y-67590080D01*
X206060080Y-67515606D01*
X206112741Y-67424394D01*
X206140000Y-67322661D01*
X206140000Y-67316447D01*
X206819024Y-67995471D01*
X206870136Y-67922478D01*
X206966264Y-67716331D01*
X206966269Y-67716317D01*
X207025139Y-67496610D01*
X207025141Y-67496599D01*
X207044966Y-67270002D01*
X207044966Y-67269997D01*
X207025141Y-67043400D01*
X207025139Y-67043389D01*
X206966269Y-66823682D01*
X206966264Y-66823668D01*
X206870136Y-66617521D01*
X206870132Y-66617513D01*
X206819025Y-66544526D01*
X206140000Y-67223551D01*
X206140000Y-67217339D01*
X206112741Y-67115606D01*
X206060080Y-67024394D01*
X205985606Y-66949920D01*
X205894394Y-66897259D01*
X205792661Y-66870000D01*
X205786448Y-66870000D01*
X206465472Y-66190974D01*
X206392478Y-66139863D01*
X206186331Y-66043735D01*
X206186317Y-66043730D01*
X205966610Y-65984860D01*
X205966599Y-65984858D01*
X205740002Y-65965034D01*
X205739998Y-65965034D01*
X205513400Y-65984858D01*
X205513389Y-65984860D01*
X205293682Y-66043730D01*
X205293673Y-66043734D01*
X205087516Y-66139866D01*
X205087512Y-66139868D01*
X205014526Y-66190973D01*
X205014526Y-66190974D01*
X205693553Y-66870000D01*
X205687339Y-66870000D01*
X205585606Y-66897259D01*
X205494394Y-66949920D01*
X205419920Y-67024394D01*
X205367259Y-67115606D01*
X205340000Y-67217339D01*
X205340000Y-67223552D01*
X204660974Y-66544526D01*
X204660973Y-66544526D01*
X204609868Y-66617512D01*
X204609866Y-66617516D01*
X204513734Y-66823673D01*
X204513730Y-66823682D01*
X204454860Y-67043389D01*
X204454858Y-67043400D01*
X204435034Y-67269997D01*
X176853415Y-67269997D01*
X176950197Y-67197546D01*
X177030565Y-67090188D01*
X177086498Y-67048318D01*
X177129831Y-67040500D01*
X177898542Y-67040500D01*
X177917870Y-67036655D01*
X177995188Y-67021275D01*
X178091836Y-67002051D01*
X178145165Y-66979961D01*
X178273914Y-66926632D01*
X178437782Y-66817139D01*
X178577139Y-66677782D01*
X178577139Y-66677780D01*
X178587347Y-66667573D01*
X178587348Y-66667570D01*
X179417139Y-65837782D01*
X179477020Y-65748164D01*
X179526632Y-65673914D01*
X179599768Y-65497346D01*
X181575034Y-65497346D01*
X181575034Y-65497351D01*
X181594858Y-65723948D01*
X181594860Y-65723959D01*
X181653730Y-65943666D01*
X181653735Y-65943680D01*
X181749863Y-66149827D01*
X181800974Y-66222821D01*
X182480000Y-65543795D01*
X182480000Y-65550010D01*
X182507259Y-65651743D01*
X182559920Y-65742955D01*
X182634394Y-65817429D01*
X182725606Y-65870090D01*
X182827339Y-65897349D01*
X182833553Y-65897349D01*
X182154526Y-66576374D01*
X182227513Y-66627481D01*
X182227521Y-66627485D01*
X182433668Y-66723613D01*
X182433682Y-66723618D01*
X182653389Y-66782488D01*
X182653400Y-66782490D01*
X182879998Y-66802315D01*
X182880002Y-66802315D01*
X183106599Y-66782490D01*
X183106610Y-66782488D01*
X183326317Y-66723618D01*
X183326331Y-66723613D01*
X183532478Y-66627485D01*
X183605471Y-66576373D01*
X182926447Y-65897349D01*
X182932661Y-65897349D01*
X183034394Y-65870090D01*
X183125606Y-65817429D01*
X183200080Y-65742955D01*
X183252741Y-65651743D01*
X183280000Y-65550010D01*
X183280000Y-65543796D01*
X183959024Y-66222820D01*
X184010136Y-66149827D01*
X184106264Y-65943680D01*
X184106269Y-65943666D01*
X184165139Y-65723959D01*
X184165141Y-65723948D01*
X184184966Y-65497351D01*
X184184966Y-65497346D01*
X184165141Y-65270749D01*
X184165139Y-65270738D01*
X184106269Y-65051031D01*
X184106264Y-65051017D01*
X184010136Y-64844870D01*
X184010132Y-64844862D01*
X183959025Y-64771875D01*
X183280000Y-65450900D01*
X183280000Y-65444688D01*
X183252741Y-65342955D01*
X183200080Y-65251743D01*
X183125606Y-65177269D01*
X183034394Y-65124608D01*
X182932661Y-65097349D01*
X182926448Y-65097349D01*
X183605472Y-64418323D01*
X183532478Y-64367212D01*
X183326331Y-64271084D01*
X183326317Y-64271079D01*
X183106610Y-64212209D01*
X183106599Y-64212207D01*
X182880002Y-64192383D01*
X182879998Y-64192383D01*
X182653400Y-64212207D01*
X182653389Y-64212209D01*
X182433682Y-64271079D01*
X182433673Y-64271083D01*
X182227516Y-64367215D01*
X182227512Y-64367217D01*
X182154526Y-64418322D01*
X182154526Y-64418323D01*
X182833553Y-65097349D01*
X182827339Y-65097349D01*
X182725606Y-65124608D01*
X182634394Y-65177269D01*
X182559920Y-65251743D01*
X182507259Y-65342955D01*
X182480000Y-65444688D01*
X182480000Y-65450901D01*
X181800974Y-64771875D01*
X181800973Y-64771875D01*
X181749868Y-64844861D01*
X181749866Y-64844865D01*
X181653734Y-65051022D01*
X181653730Y-65051031D01*
X181594860Y-65270738D01*
X181594858Y-65270749D01*
X181575034Y-65497346D01*
X179599768Y-65497346D01*
X179602051Y-65491835D01*
X179622802Y-65387512D01*
X179640500Y-65298543D01*
X179640500Y-58069377D01*
X179660185Y-58002338D01*
X179673264Y-57985401D01*
X179748979Y-57903153D01*
X179875924Y-57708849D01*
X179969157Y-57496300D01*
X180026134Y-57271305D01*
X180029515Y-57230500D01*
X180045300Y-57040006D01*
X180045300Y-57039993D01*
X180026135Y-56808702D01*
X180026133Y-56808691D01*
X179969157Y-56583699D01*
X179875924Y-56371151D01*
X179748983Y-56176852D01*
X179748980Y-56176849D01*
X179748979Y-56176847D01*
X179591784Y-56006087D01*
X179591779Y-56006083D01*
X179591777Y-56006081D01*
X179408634Y-55863535D01*
X179408628Y-55863531D01*
X179204504Y-55753064D01*
X179204495Y-55753061D01*
X178984984Y-55677702D01*
X178794450Y-55645908D01*
X178756049Y-55639500D01*
X178523951Y-55639500D01*
X178485550Y-55645908D01*
X178295015Y-55677702D01*
X178075504Y-55753061D01*
X178075495Y-55753064D01*
X177871371Y-55863531D01*
X177871365Y-55863535D01*
X177688222Y-56006081D01*
X177688219Y-56006084D01*
X177688216Y-56006086D01*
X177688216Y-56006087D01*
X177663886Y-56032517D01*
X177531016Y-56176852D01*
X177404075Y-56371151D01*
X177310842Y-56583699D01*
X177253866Y-56808691D01*
X177253864Y-56808702D01*
X177234700Y-57039993D01*
X177234700Y-57040006D01*
X177253864Y-57271297D01*
X177253866Y-57271308D01*
X177310842Y-57496300D01*
X177404075Y-57708848D01*
X177531016Y-57903147D01*
X177531019Y-57903151D01*
X177531021Y-57903153D01*
X177606731Y-57985396D01*
X177637652Y-58048049D01*
X177639500Y-58069377D01*
X177639500Y-64734217D01*
X177619815Y-64801256D01*
X177603181Y-64821898D01*
X177421899Y-65003181D01*
X177360576Y-65036666D01*
X177334218Y-65039500D01*
X177129831Y-65039500D01*
X177062792Y-65019815D01*
X177030564Y-64989811D01*
X176950197Y-64882454D01*
X176927360Y-64865358D01*
X176834986Y-64796206D01*
X176834979Y-64796202D01*
X176700133Y-64745908D01*
X176700134Y-64745908D01*
X176640534Y-64739501D01*
X176640532Y-64739500D01*
X176640524Y-64739500D01*
X176640515Y-64739500D01*
X174944780Y-64739500D01*
X174944774Y-64739501D01*
X174885167Y-64745908D01*
X174750322Y-64796202D01*
X174750315Y-64796206D01*
X174635106Y-64882452D01*
X174635103Y-64882455D01*
X174548857Y-64997664D01*
X174548853Y-64997671D01*
X174498559Y-65132517D01*
X174492152Y-65192116D01*
X174492151Y-65192135D01*
X174492151Y-65874216D01*
X174472466Y-65941255D01*
X174455835Y-65961895D01*
X174442858Y-65974872D01*
X174333371Y-66138730D01*
X174333364Y-66138743D01*
X174257950Y-66320811D01*
X174257947Y-66320821D01*
X174219500Y-66514107D01*
X174219500Y-76132819D01*
X174199815Y-76199858D01*
X174169812Y-76232085D01*
X174062452Y-76312455D01*
X173976206Y-76427664D01*
X173976202Y-76427671D01*
X173925908Y-76562517D01*
X173919501Y-76622116D01*
X173919501Y-76622123D01*
X173919322Y-76625452D01*
X173917847Y-76625372D01*
X173899815Y-76686784D01*
X173847011Y-76732539D01*
X173803522Y-76740029D01*
X173120000Y-77423551D01*
X173120000Y-77417339D01*
X173092741Y-77315606D01*
X173040080Y-77224394D01*
X172965606Y-77149920D01*
X172874394Y-77097259D01*
X172772661Y-77070000D01*
X172766448Y-77070000D01*
X173445472Y-76390974D01*
X173372478Y-76339863D01*
X173166331Y-76243735D01*
X173166317Y-76243730D01*
X172946610Y-76184860D01*
X172946599Y-76184858D01*
X172720002Y-76165034D01*
X172719998Y-76165034D01*
X172493400Y-76184858D01*
X172493389Y-76184860D01*
X172273682Y-76243730D01*
X172273673Y-76243734D01*
X172067516Y-76339866D01*
X172067512Y-76339868D01*
X171994526Y-76390973D01*
X171994526Y-76390974D01*
X172673553Y-77070000D01*
X172667339Y-77070000D01*
X172565606Y-77097259D01*
X172474394Y-77149920D01*
X172399920Y-77224394D01*
X172347259Y-77315606D01*
X172320000Y-77417339D01*
X172320000Y-77423552D01*
X171640974Y-76744526D01*
X171640973Y-76744526D01*
X171589868Y-76817512D01*
X171589866Y-76817516D01*
X171493734Y-77023673D01*
X171493730Y-77023682D01*
X171434860Y-77243389D01*
X171434858Y-77243400D01*
X171415034Y-77469997D01*
X171415034Y-77470002D01*
X171434858Y-77696599D01*
X171434860Y-77696610D01*
X171493730Y-77916317D01*
X171493735Y-77916331D01*
X171589863Y-78122478D01*
X171640974Y-78195472D01*
X172320000Y-77516446D01*
X172320000Y-77522661D01*
X172347259Y-77624394D01*
X172399920Y-77715606D01*
X172474394Y-77790080D01*
X172565606Y-77842741D01*
X172667339Y-77870000D01*
X172673553Y-77870000D01*
X171994526Y-78549025D01*
X172067513Y-78600132D01*
X172067521Y-78600136D01*
X172273668Y-78696264D01*
X172273682Y-78696269D01*
X172493389Y-78755139D01*
X172493400Y-78755141D01*
X172719998Y-78774966D01*
X172720002Y-78774966D01*
X172946599Y-78755141D01*
X172946610Y-78755139D01*
X173166317Y-78696269D01*
X173166331Y-78696264D01*
X173372478Y-78600136D01*
X173445471Y-78549024D01*
X172766447Y-77870000D01*
X172772661Y-77870000D01*
X172874394Y-77842741D01*
X172965606Y-77790080D01*
X173040080Y-77715606D01*
X173092741Y-77624394D01*
X173120000Y-77522661D01*
X173120000Y-77516447D01*
X173804197Y-78200644D01*
X173853192Y-78210491D01*
X173903375Y-78259106D01*
X173918049Y-78314632D01*
X173919099Y-78314576D01*
X173919146Y-78314571D01*
X173919146Y-78314573D01*
X173919324Y-78314564D01*
X173919501Y-78317876D01*
X173925908Y-78377483D01*
X173976202Y-78512328D01*
X173976206Y-78512335D01*
X174042258Y-78600568D01*
X174062454Y-78627546D01*
X174169811Y-78707914D01*
X174211682Y-78763847D01*
X174219500Y-78807180D01*
X174219500Y-86752410D01*
X174199815Y-86819449D01*
X174197076Y-86823532D01*
X174089431Y-86977267D01*
X173993261Y-87183502D01*
X173993258Y-87183511D01*
X173934366Y-87403302D01*
X173934364Y-87403313D01*
X173914532Y-87629998D01*
X173914532Y-87630001D01*
X173934364Y-87856686D01*
X173934366Y-87856697D01*
X173993258Y-88076488D01*
X173993261Y-88076497D01*
X174089431Y-88282732D01*
X174089432Y-88282734D01*
X174197075Y-88436465D01*
X174219402Y-88502671D01*
X174219500Y-88507588D01*
X174219500Y-88958544D01*
X174257117Y-89147656D01*
X174259500Y-89171847D01*
X174259500Y-89704218D01*
X174239815Y-89771257D01*
X174223181Y-89791899D01*
X173611899Y-90403181D01*
X173550576Y-90436666D01*
X173524218Y-90439500D01*
X166906565Y-90439500D01*
X166839526Y-90419815D01*
X166797732Y-90374925D01*
X166787226Y-90355685D01*
X166787224Y-90355682D01*
X166615745Y-90126612D01*
X166615729Y-90126594D01*
X166413405Y-89924270D01*
X166413387Y-89924254D01*
X166184317Y-89752775D01*
X166184309Y-89752770D01*
X165933166Y-89615635D01*
X165933167Y-89615635D01*
X165825915Y-89575632D01*
X165665046Y-89515631D01*
X165665043Y-89515630D01*
X165665037Y-89515628D01*
X165385433Y-89454804D01*
X165100001Y-89434390D01*
X165099999Y-89434390D01*
X164814566Y-89454804D01*
X164534962Y-89515628D01*
X164266833Y-89615635D01*
X164015690Y-89752770D01*
X164015682Y-89752775D01*
X163786612Y-89924254D01*
X163786594Y-89924270D01*
X163584270Y-90126594D01*
X163584254Y-90126612D01*
X163412775Y-90355682D01*
X163412774Y-90355685D01*
X163275635Y-90606833D01*
X163175628Y-90874962D01*
X163114804Y-91154566D01*
X163094390Y-91439998D01*
X163094390Y-91440001D01*
X163114804Y-91725433D01*
X163175628Y-92005037D01*
X163175630Y-92005043D01*
X163175631Y-92005046D01*
X163248532Y-92200500D01*
X163275635Y-92273166D01*
X163412770Y-92524309D01*
X163412775Y-92524317D01*
X163584254Y-92753387D01*
X163584270Y-92753405D01*
X163786594Y-92955729D01*
X163786612Y-92955745D01*
X164015682Y-93127224D01*
X164015690Y-93127229D01*
X164234425Y-93246668D01*
X164283830Y-93296073D01*
X164298682Y-93364346D01*
X164274265Y-93429811D01*
X164218331Y-93471682D01*
X164174998Y-93479500D01*
X153024500Y-93479500D01*
X152957461Y-93459815D01*
X152911706Y-93407011D01*
X152900500Y-93355500D01*
X152900500Y-88899997D01*
X154174652Y-88899997D01*
X154174652Y-88900002D01*
X154176216Y-88928839D01*
X154192839Y-89235449D01*
X154194028Y-89257368D01*
X154194029Y-89257385D01*
X154251926Y-89610539D01*
X154251932Y-89610565D01*
X154347672Y-89955392D01*
X154347674Y-89955399D01*
X154480142Y-90287870D01*
X154480151Y-90287888D01*
X154647784Y-90604077D01*
X154647787Y-90604082D01*
X154647789Y-90604085D01*
X154831544Y-90875104D01*
X154848634Y-90900309D01*
X154848641Y-90900319D01*
X155005292Y-91084742D01*
X155080332Y-91173086D01*
X155340163Y-91419211D01*
X155625081Y-91635800D01*
X155931747Y-91820315D01*
X155931749Y-91820316D01*
X155931751Y-91820317D01*
X155931755Y-91820319D01*
X156143100Y-91918097D01*
X156256565Y-91970591D01*
X156595726Y-92084868D01*
X156945254Y-92161805D01*
X157301052Y-92200500D01*
X157301058Y-92200500D01*
X157658942Y-92200500D01*
X157658948Y-92200500D01*
X158014746Y-92161805D01*
X158364274Y-92084868D01*
X158703435Y-91970591D01*
X159028253Y-91820315D01*
X159334919Y-91635800D01*
X159619837Y-91419211D01*
X159879668Y-91173086D01*
X160111365Y-90900311D01*
X160312211Y-90604085D01*
X160479853Y-90287880D01*
X160612324Y-89955403D01*
X160708071Y-89610552D01*
X160765972Y-89257371D01*
X160785348Y-88900000D01*
X160765972Y-88542629D01*
X160760227Y-88507588D01*
X160708073Y-88189460D01*
X160708072Y-88189459D01*
X160708071Y-88189448D01*
X160615682Y-87856692D01*
X160612327Y-87844607D01*
X160612325Y-87844600D01*
X160526820Y-87629997D01*
X168915034Y-87629997D01*
X168915034Y-87630002D01*
X168934858Y-87856599D01*
X168934860Y-87856610D01*
X168993730Y-88076317D01*
X168993735Y-88076331D01*
X169089863Y-88282478D01*
X169140974Y-88355472D01*
X169820000Y-87676446D01*
X169820000Y-87682661D01*
X169847259Y-87784394D01*
X169899920Y-87875606D01*
X169974394Y-87950080D01*
X170065606Y-88002741D01*
X170167339Y-88030000D01*
X170173553Y-88030000D01*
X169494526Y-88709025D01*
X169567513Y-88760132D01*
X169567521Y-88760136D01*
X169773668Y-88856264D01*
X169773682Y-88856269D01*
X169993389Y-88915139D01*
X169993400Y-88915141D01*
X170219998Y-88934966D01*
X170220002Y-88934966D01*
X170446599Y-88915141D01*
X170446610Y-88915139D01*
X170666317Y-88856269D01*
X170666331Y-88856264D01*
X170872478Y-88760136D01*
X170945471Y-88709024D01*
X170266447Y-88030000D01*
X170272661Y-88030000D01*
X170374394Y-88002741D01*
X170465606Y-87950080D01*
X170540080Y-87875606D01*
X170592741Y-87784394D01*
X170620000Y-87682661D01*
X170620000Y-87676447D01*
X171299024Y-88355471D01*
X171350136Y-88282478D01*
X171446264Y-88076331D01*
X171446269Y-88076317D01*
X171505139Y-87856610D01*
X171505141Y-87856599D01*
X171524966Y-87630002D01*
X171524966Y-87629997D01*
X171505141Y-87403400D01*
X171505139Y-87403389D01*
X171446269Y-87183682D01*
X171446264Y-87183668D01*
X171350136Y-86977521D01*
X171350132Y-86977513D01*
X171299025Y-86904526D01*
X170620000Y-87583551D01*
X170620000Y-87577339D01*
X170592741Y-87475606D01*
X170540080Y-87384394D01*
X170465606Y-87309920D01*
X170374394Y-87257259D01*
X170272661Y-87230000D01*
X170266448Y-87230000D01*
X170945472Y-86550974D01*
X170872478Y-86499863D01*
X170666331Y-86403735D01*
X170666317Y-86403730D01*
X170446610Y-86344860D01*
X170446599Y-86344858D01*
X170220002Y-86325034D01*
X170219998Y-86325034D01*
X169993400Y-86344858D01*
X169993389Y-86344860D01*
X169773682Y-86403730D01*
X169773673Y-86403734D01*
X169567516Y-86499866D01*
X169567512Y-86499868D01*
X169494526Y-86550973D01*
X169494526Y-86550974D01*
X170173553Y-87230000D01*
X170167339Y-87230000D01*
X170065606Y-87257259D01*
X169974394Y-87309920D01*
X169899920Y-87384394D01*
X169847259Y-87475606D01*
X169820000Y-87577339D01*
X169820000Y-87583552D01*
X169140974Y-86904526D01*
X169140973Y-86904526D01*
X169089868Y-86977512D01*
X169089866Y-86977516D01*
X168993734Y-87183673D01*
X168993730Y-87183682D01*
X168934860Y-87403389D01*
X168934858Y-87403400D01*
X168915034Y-87629997D01*
X160526820Y-87629997D01*
X160479857Y-87512129D01*
X160479848Y-87512111D01*
X160312215Y-87195922D01*
X160312213Y-87195919D01*
X160312211Y-87195915D01*
X160111365Y-86899689D01*
X160111361Y-86899684D01*
X160111358Y-86899680D01*
X159879668Y-86626914D01*
X159799498Y-86550973D01*
X159619837Y-86380789D01*
X159619830Y-86380783D01*
X159619827Y-86380781D01*
X159552245Y-86329407D01*
X159334919Y-86164200D01*
X159028253Y-85979685D01*
X159028252Y-85979684D01*
X159028248Y-85979682D01*
X159028244Y-85979680D01*
X158703447Y-85829414D01*
X158703441Y-85829411D01*
X158703435Y-85829409D01*
X158533854Y-85772270D01*
X158364273Y-85715131D01*
X158014744Y-85638194D01*
X157658949Y-85599500D01*
X157658948Y-85599500D01*
X157301052Y-85599500D01*
X157301050Y-85599500D01*
X156945255Y-85638194D01*
X156595726Y-85715131D01*
X156339970Y-85801306D01*
X156256565Y-85829409D01*
X156256563Y-85829410D01*
X156256552Y-85829414D01*
X155931755Y-85979680D01*
X155931751Y-85979682D01*
X155754711Y-86086204D01*
X155625081Y-86164200D01*
X155578600Y-86199534D01*
X155340172Y-86380781D01*
X155340163Y-86380789D01*
X155080331Y-86626914D01*
X154848641Y-86899680D01*
X154848634Y-86899690D01*
X154647790Y-87195913D01*
X154647784Y-87195922D01*
X154480151Y-87512111D01*
X154480142Y-87512129D01*
X154347674Y-87844600D01*
X154347672Y-87844607D01*
X154251932Y-88189434D01*
X154251926Y-88189460D01*
X154194029Y-88542614D01*
X154194028Y-88542631D01*
X154174652Y-88899997D01*
X152900500Y-88899997D01*
X152900500Y-73409999D01*
X165091127Y-73409999D01*
X165091128Y-73410000D01*
X166054314Y-73410000D01*
X166049920Y-73414394D01*
X165997259Y-73505606D01*
X165970000Y-73607339D01*
X165970000Y-73712661D01*
X165997259Y-73814394D01*
X166049920Y-73905606D01*
X166054314Y-73910000D01*
X165091128Y-73910000D01*
X165143730Y-74106317D01*
X165143734Y-74106326D01*
X165239865Y-74312482D01*
X165370342Y-74498820D01*
X165531179Y-74659657D01*
X165717517Y-74790134D01*
X165923673Y-74886265D01*
X165923682Y-74886269D01*
X166119999Y-74938872D01*
X166120000Y-74938871D01*
X166120000Y-73975686D01*
X166124394Y-73980080D01*
X166215606Y-74032741D01*
X166317339Y-74060000D01*
X166422661Y-74060000D01*
X166524394Y-74032741D01*
X166615606Y-73980080D01*
X166620000Y-73975686D01*
X166620000Y-74938872D01*
X166816317Y-74886269D01*
X166816326Y-74886265D01*
X167022482Y-74790134D01*
X167208820Y-74659657D01*
X167369657Y-74498820D01*
X167500134Y-74312482D01*
X167596265Y-74106326D01*
X167596269Y-74106317D01*
X167648872Y-73910000D01*
X166685686Y-73910000D01*
X166690080Y-73905606D01*
X166742741Y-73814394D01*
X166770000Y-73712661D01*
X166770000Y-73607339D01*
X166742741Y-73505606D01*
X166690080Y-73414394D01*
X166685686Y-73410000D01*
X167648872Y-73410000D01*
X167648872Y-73409999D01*
X167596269Y-73213682D01*
X167596265Y-73213673D01*
X167500134Y-73007517D01*
X167369657Y-72821179D01*
X167208820Y-72660342D01*
X167022482Y-72529865D01*
X166816328Y-72433734D01*
X166620000Y-72381127D01*
X166620000Y-73344314D01*
X166615606Y-73339920D01*
X166524394Y-73287259D01*
X166422661Y-73260000D01*
X166317339Y-73260000D01*
X166215606Y-73287259D01*
X166124394Y-73339920D01*
X166120000Y-73344314D01*
X166120000Y-72381127D01*
X165923671Y-72433734D01*
X165717517Y-72529865D01*
X165531179Y-72660342D01*
X165370342Y-72821179D01*
X165239865Y-73007517D01*
X165143734Y-73213673D01*
X165143730Y-73213682D01*
X165091127Y-73409999D01*
X152900500Y-73409999D01*
X152900500Y-66039997D01*
X170687685Y-66039997D01*
X170687685Y-66040002D01*
X170707509Y-66266599D01*
X170707511Y-66266610D01*
X170766381Y-66486317D01*
X170766386Y-66486331D01*
X170862514Y-66692478D01*
X170913625Y-66765472D01*
X171592651Y-66086446D01*
X171592651Y-66092661D01*
X171619910Y-66194394D01*
X171672571Y-66285606D01*
X171747045Y-66360080D01*
X171838257Y-66412741D01*
X171939990Y-66440000D01*
X171946204Y-66440000D01*
X171267177Y-67119025D01*
X171340164Y-67170132D01*
X171340172Y-67170136D01*
X171546319Y-67266264D01*
X171546333Y-67266269D01*
X171766040Y-67325139D01*
X171766051Y-67325141D01*
X171992649Y-67344966D01*
X171992653Y-67344966D01*
X172219250Y-67325141D01*
X172219261Y-67325139D01*
X172438968Y-67266269D01*
X172438982Y-67266264D01*
X172645129Y-67170136D01*
X172718122Y-67119024D01*
X172039098Y-66440000D01*
X172045312Y-66440000D01*
X172147045Y-66412741D01*
X172238257Y-66360080D01*
X172312731Y-66285606D01*
X172365392Y-66194394D01*
X172392651Y-66092661D01*
X172392651Y-66086447D01*
X173071675Y-66765471D01*
X173122787Y-66692478D01*
X173218915Y-66486331D01*
X173218920Y-66486317D01*
X173277790Y-66266610D01*
X173277792Y-66266599D01*
X173297617Y-66040002D01*
X173297617Y-66039997D01*
X173277792Y-65813400D01*
X173277790Y-65813389D01*
X173218920Y-65593682D01*
X173218915Y-65593668D01*
X173122787Y-65387521D01*
X173122783Y-65387513D01*
X173071676Y-65314526D01*
X172392651Y-65993551D01*
X172392651Y-65987339D01*
X172365392Y-65885606D01*
X172312731Y-65794394D01*
X172238257Y-65719920D01*
X172147045Y-65667259D01*
X172045312Y-65640000D01*
X172039099Y-65640000D01*
X172718123Y-64960974D01*
X172645129Y-64909863D01*
X172438982Y-64813735D01*
X172438968Y-64813730D01*
X172219261Y-64754860D01*
X172219250Y-64754858D01*
X171992653Y-64735034D01*
X171992649Y-64735034D01*
X171766051Y-64754858D01*
X171766040Y-64754860D01*
X171546333Y-64813730D01*
X171546324Y-64813734D01*
X171340167Y-64909866D01*
X171340163Y-64909868D01*
X171267177Y-64960973D01*
X171267177Y-64960974D01*
X171946204Y-65640000D01*
X171939990Y-65640000D01*
X171838257Y-65667259D01*
X171747045Y-65719920D01*
X171672571Y-65794394D01*
X171619910Y-65885606D01*
X171592651Y-65987339D01*
X171592651Y-65993552D01*
X170913625Y-65314526D01*
X170913624Y-65314526D01*
X170862519Y-65387512D01*
X170862517Y-65387516D01*
X170766385Y-65593673D01*
X170766381Y-65593682D01*
X170707511Y-65813389D01*
X170707509Y-65813400D01*
X170687685Y-66039997D01*
X152900500Y-66039997D01*
X152900500Y-63499998D01*
X165064532Y-63499998D01*
X165064532Y-63500001D01*
X165084364Y-63726686D01*
X165084366Y-63726697D01*
X165143258Y-63946488D01*
X165143261Y-63946497D01*
X165239431Y-64152732D01*
X165239432Y-64152734D01*
X165369954Y-64339141D01*
X165530858Y-64500045D01*
X165530861Y-64500047D01*
X165717266Y-64630568D01*
X165923504Y-64726739D01*
X165923509Y-64726740D01*
X165923511Y-64726741D01*
X165971129Y-64739500D01*
X166143308Y-64785635D01*
X166305230Y-64799801D01*
X166369998Y-64805468D01*
X166370000Y-64805468D01*
X166370002Y-64805468D01*
X166426673Y-64800509D01*
X166596692Y-64785635D01*
X166816496Y-64726739D01*
X167022734Y-64630568D01*
X167209139Y-64500047D01*
X167370047Y-64339139D01*
X167500568Y-64152734D01*
X167596739Y-63946496D01*
X167655635Y-63726692D01*
X167675468Y-63500000D01*
X167655635Y-63273308D01*
X167596739Y-63053504D01*
X167500568Y-62847266D01*
X167370047Y-62660861D01*
X167370045Y-62660858D01*
X167209141Y-62499954D01*
X167022734Y-62369432D01*
X167022732Y-62369431D01*
X166816497Y-62273261D01*
X166816488Y-62273258D01*
X166596697Y-62214366D01*
X166596693Y-62214365D01*
X166596692Y-62214365D01*
X166596691Y-62214364D01*
X166596686Y-62214364D01*
X166370002Y-62194532D01*
X166369998Y-62194532D01*
X166143313Y-62214364D01*
X166143302Y-62214366D01*
X165923511Y-62273258D01*
X165923502Y-62273261D01*
X165717267Y-62369431D01*
X165717265Y-62369432D01*
X165530858Y-62499954D01*
X165369954Y-62660858D01*
X165239432Y-62847265D01*
X165239431Y-62847267D01*
X165143261Y-63053502D01*
X165143258Y-63053511D01*
X165084366Y-63273302D01*
X165084364Y-63273313D01*
X165064532Y-63499998D01*
X152900500Y-63499998D01*
X152900500Y-54982135D01*
X154859500Y-54982135D01*
X154859500Y-56777870D01*
X154859501Y-56777876D01*
X154865908Y-56837483D01*
X154916202Y-56972328D01*
X154916206Y-56972335D01*
X155002452Y-57087544D01*
X155002455Y-57087547D01*
X155117664Y-57173793D01*
X155117671Y-57173797D01*
X155135643Y-57180500D01*
X155249598Y-57223002D01*
X155305531Y-57264873D01*
X155329949Y-57330337D01*
X155315098Y-57398610D01*
X155293947Y-57426865D01*
X155171886Y-57548926D01*
X155036400Y-57742420D01*
X155036399Y-57742422D01*
X154936570Y-57956507D01*
X154936567Y-57956513D01*
X154879364Y-58169999D01*
X154879364Y-58170000D01*
X155776988Y-58170000D01*
X155744075Y-58227007D01*
X155710000Y-58354174D01*
X155710000Y-58485826D01*
X155744075Y-58612993D01*
X155776988Y-58670000D01*
X154879364Y-58670000D01*
X154936567Y-58883486D01*
X154936570Y-58883492D01*
X155036399Y-59097578D01*
X155171894Y-59291082D01*
X155338917Y-59458105D01*
X155532421Y-59593600D01*
X155746507Y-59693429D01*
X155746516Y-59693433D01*
X155960000Y-59750634D01*
X155960000Y-58853012D01*
X156017007Y-58885925D01*
X156144174Y-58920000D01*
X156275826Y-58920000D01*
X156402993Y-58885925D01*
X156460000Y-58853012D01*
X156460000Y-59750633D01*
X156673483Y-59693433D01*
X156673492Y-59693429D01*
X156887578Y-59593600D01*
X157081082Y-59458105D01*
X157248105Y-59291082D01*
X157383600Y-59097578D01*
X157483429Y-58883492D01*
X157483432Y-58883486D01*
X157540636Y-58670000D01*
X156643012Y-58670000D01*
X156675925Y-58612993D01*
X156710000Y-58485826D01*
X156710000Y-58354174D01*
X156675925Y-58227007D01*
X156643012Y-58170000D01*
X157540636Y-58170000D01*
X157540635Y-58169999D01*
X157483432Y-57956513D01*
X157483429Y-57956507D01*
X157383600Y-57742422D01*
X157383599Y-57742420D01*
X157248113Y-57548926D01*
X157248108Y-57548920D01*
X157126053Y-57426865D01*
X157092568Y-57365542D01*
X157097552Y-57295850D01*
X157139424Y-57239917D01*
X157170400Y-57223002D01*
X157284357Y-57180500D01*
X157302326Y-57173798D01*
X157302326Y-57173797D01*
X157302331Y-57173796D01*
X157417546Y-57087546D01*
X157503796Y-56972331D01*
X157507960Y-56961165D01*
X157549829Y-56905234D01*
X157615293Y-56880816D01*
X157624141Y-56880500D01*
X162532820Y-56880500D01*
X162599859Y-56900185D01*
X162632085Y-56930187D01*
X162712454Y-57037546D01*
X162734995Y-57054420D01*
X162827664Y-57123793D01*
X162827671Y-57123797D01*
X162962517Y-57174091D01*
X162962516Y-57174091D01*
X162969444Y-57174835D01*
X163022127Y-57180500D01*
X164717872Y-57180499D01*
X164777483Y-57174091D01*
X164912331Y-57123796D01*
X165027546Y-57037546D01*
X165113796Y-56922331D01*
X165164091Y-56787483D01*
X165164092Y-56787472D01*
X165165365Y-56782088D01*
X165199933Y-56721369D01*
X165261841Y-56688978D01*
X165331433Y-56695199D01*
X165373725Y-56722912D01*
X165530858Y-56880045D01*
X165530861Y-56880047D01*
X165717266Y-57010568D01*
X165923504Y-57106739D01*
X166143308Y-57165635D01*
X166305230Y-57179801D01*
X166369998Y-57185468D01*
X166370000Y-57185468D01*
X166370002Y-57185468D01*
X166426807Y-57180498D01*
X166596692Y-57165635D01*
X166816496Y-57106739D01*
X167022734Y-57010568D01*
X167176465Y-56902924D01*
X167242671Y-56880598D01*
X167247588Y-56880500D01*
X173614218Y-56880500D01*
X173681257Y-56900185D01*
X173701899Y-56916819D01*
X173803181Y-57018101D01*
X173836666Y-57079424D01*
X173839500Y-57105782D01*
X173839500Y-57987870D01*
X173839501Y-57987876D01*
X173845908Y-58047483D01*
X173896202Y-58182328D01*
X173896206Y-58182335D01*
X173982452Y-58297544D01*
X173982455Y-58297547D01*
X174097664Y-58383793D01*
X174097671Y-58383797D01*
X174232517Y-58434091D01*
X174232516Y-58434091D01*
X174239444Y-58434835D01*
X174292127Y-58440500D01*
X176187872Y-58440499D01*
X176247483Y-58434091D01*
X176382331Y-58383796D01*
X176497546Y-58297546D01*
X176583796Y-58182331D01*
X176634091Y-58047483D01*
X176640500Y-57987873D01*
X176640499Y-56092128D01*
X176634091Y-56032517D01*
X176629353Y-56019815D01*
X176583797Y-55897671D01*
X176583793Y-55897664D01*
X176497547Y-55782455D01*
X176497544Y-55782452D01*
X176382335Y-55696206D01*
X176382328Y-55696202D01*
X176247482Y-55645908D01*
X176247483Y-55645908D01*
X176187883Y-55639501D01*
X176187881Y-55639500D01*
X176187873Y-55639500D01*
X176187865Y-55639500D01*
X175305782Y-55639500D01*
X175238743Y-55619815D01*
X175218101Y-55603181D01*
X174864209Y-55249289D01*
X174864206Y-55249285D01*
X174864206Y-55249286D01*
X174857139Y-55242219D01*
X174857139Y-55242218D01*
X174717782Y-55102861D01*
X174717781Y-55102860D01*
X174717780Y-55102859D01*
X174553920Y-54993371D01*
X174553907Y-54993364D01*
X174390508Y-54925683D01*
X174371837Y-54917949D01*
X174371829Y-54917947D01*
X174275188Y-54898724D01*
X174178544Y-54879500D01*
X174178541Y-54879500D01*
X167247588Y-54879500D01*
X167180549Y-54859815D01*
X167176465Y-54857075D01*
X167148750Y-54837669D01*
X167022734Y-54749432D01*
X167022732Y-54749431D01*
X166816497Y-54653261D01*
X166816488Y-54653258D01*
X166596697Y-54594366D01*
X166596693Y-54594365D01*
X166596692Y-54594365D01*
X166596691Y-54594364D01*
X166596686Y-54594364D01*
X166370002Y-54574532D01*
X166369998Y-54574532D01*
X166143313Y-54594364D01*
X166143302Y-54594366D01*
X165923511Y-54653258D01*
X165923502Y-54653261D01*
X165717267Y-54749431D01*
X165717265Y-54749432D01*
X165530862Y-54879951D01*
X165373726Y-55037087D01*
X165312403Y-55070571D01*
X165242711Y-55065587D01*
X165186778Y-55023715D01*
X165165369Y-54977923D01*
X165164091Y-54972518D01*
X165152148Y-54940498D01*
X165113796Y-54837669D01*
X165113795Y-54837668D01*
X165113793Y-54837664D01*
X165027547Y-54722455D01*
X165027544Y-54722452D01*
X164912335Y-54636206D01*
X164912328Y-54636202D01*
X164777482Y-54585908D01*
X164777483Y-54585908D01*
X164717883Y-54579501D01*
X164717881Y-54579500D01*
X164717873Y-54579500D01*
X164717864Y-54579500D01*
X163022129Y-54579500D01*
X163022123Y-54579501D01*
X162962516Y-54585908D01*
X162827671Y-54636202D01*
X162827664Y-54636206D01*
X162712456Y-54722452D01*
X162712455Y-54722453D01*
X162712454Y-54722454D01*
X162632087Y-54829811D01*
X162576153Y-54871682D01*
X162532820Y-54879500D01*
X157624141Y-54879500D01*
X157557102Y-54859815D01*
X157511347Y-54807011D01*
X157507969Y-54798859D01*
X157503796Y-54787669D01*
X157503793Y-54787665D01*
X157503793Y-54787664D01*
X157417547Y-54672455D01*
X157417544Y-54672452D01*
X157302335Y-54586206D01*
X157302328Y-54586202D01*
X157167482Y-54535908D01*
X157167483Y-54535908D01*
X157107883Y-54529501D01*
X157107881Y-54529500D01*
X157107873Y-54529500D01*
X157107864Y-54529500D01*
X155312129Y-54529500D01*
X155312123Y-54529501D01*
X155252516Y-54535908D01*
X155117671Y-54586202D01*
X155117664Y-54586206D01*
X155002455Y-54672452D01*
X155002452Y-54672455D01*
X154916206Y-54787664D01*
X154916202Y-54787671D01*
X154865908Y-54922517D01*
X154859501Y-54982116D01*
X154859500Y-54982135D01*
X152900500Y-54982135D01*
X152900500Y-53339993D01*
X175534700Y-53339993D01*
X175534700Y-53340006D01*
X175553864Y-53571297D01*
X175553866Y-53571308D01*
X175610842Y-53796300D01*
X175704075Y-54008848D01*
X175831016Y-54203147D01*
X175831019Y-54203151D01*
X175831021Y-54203153D01*
X175988216Y-54373913D01*
X175988219Y-54373915D01*
X175988222Y-54373918D01*
X176171365Y-54516464D01*
X176171371Y-54516468D01*
X176171374Y-54516470D01*
X176375497Y-54626936D01*
X176452599Y-54653405D01*
X176595015Y-54702297D01*
X176595017Y-54702297D01*
X176595019Y-54702298D01*
X176823951Y-54740500D01*
X176823952Y-54740500D01*
X177056048Y-54740500D01*
X177056049Y-54740500D01*
X177284981Y-54702298D01*
X177504503Y-54626936D01*
X177708626Y-54516470D01*
X177739900Y-54492129D01*
X177770129Y-54468600D01*
X177891784Y-54373913D01*
X178048979Y-54203153D01*
X178175924Y-54008849D01*
X178269157Y-53796300D01*
X178326134Y-53571305D01*
X178326135Y-53571297D01*
X178345300Y-53340006D01*
X178345300Y-53339993D01*
X178934700Y-53339993D01*
X178934700Y-53340006D01*
X178953864Y-53571297D01*
X178953866Y-53571308D01*
X179010842Y-53796300D01*
X179104075Y-54008848D01*
X179231016Y-54203147D01*
X179231019Y-54203151D01*
X179231021Y-54203153D01*
X179388216Y-54373913D01*
X179388219Y-54373915D01*
X179388222Y-54373918D01*
X179571365Y-54516464D01*
X179571371Y-54516468D01*
X179571374Y-54516470D01*
X179775497Y-54626936D01*
X179852599Y-54653405D01*
X179995015Y-54702297D01*
X179995017Y-54702297D01*
X179995019Y-54702298D01*
X180223951Y-54740500D01*
X180223952Y-54740500D01*
X180456048Y-54740500D01*
X180456049Y-54740500D01*
X180684981Y-54702298D01*
X180904503Y-54626936D01*
X181108626Y-54516470D01*
X181291784Y-54373913D01*
X181291800Y-54373895D01*
X181292479Y-54373272D01*
X181292827Y-54373100D01*
X181295830Y-54370763D01*
X181296310Y-54371380D01*
X181355133Y-54342348D01*
X181376464Y-54340500D01*
X186652547Y-54340500D01*
X186719586Y-54360185D01*
X186746833Y-54383965D01*
X186824775Y-54475223D01*
X186824776Y-54475224D01*
X187016343Y-54638838D01*
X187016346Y-54638839D01*
X187231140Y-54770466D01*
X187440234Y-54857075D01*
X187463889Y-54866873D01*
X187708852Y-54925683D01*
X187960000Y-54945449D01*
X188211148Y-54925683D01*
X188456111Y-54866873D01*
X188688859Y-54770466D01*
X188903659Y-54638836D01*
X189095224Y-54475224D01*
X189258836Y-54283659D01*
X189390466Y-54068859D01*
X189486873Y-53836111D01*
X189545683Y-53591148D01*
X189565449Y-53340000D01*
X189545683Y-53088852D01*
X189486873Y-52843889D01*
X189472591Y-52809409D01*
X189390466Y-52611140D01*
X189258839Y-52396346D01*
X189258838Y-52396343D01*
X189205784Y-52334225D01*
X189095224Y-52204776D01*
X188968571Y-52096604D01*
X188903656Y-52041161D01*
X188903653Y-52041160D01*
X188688859Y-51909533D01*
X188456110Y-51813126D01*
X188211151Y-51754317D01*
X187960000Y-51734551D01*
X187708848Y-51754317D01*
X187463889Y-51813126D01*
X187231140Y-51909533D01*
X187016346Y-52041160D01*
X187016343Y-52041161D01*
X186824776Y-52204775D01*
X186789263Y-52246356D01*
X186746835Y-52296032D01*
X186688331Y-52334225D01*
X186652547Y-52339500D01*
X181376464Y-52339500D01*
X181309425Y-52319815D01*
X181292479Y-52306728D01*
X181291794Y-52306098D01*
X181291784Y-52306087D01*
X181145368Y-52192127D01*
X181108628Y-52163531D01*
X180904504Y-52053064D01*
X180904495Y-52053061D01*
X180684984Y-51977702D01*
X180513282Y-51949050D01*
X180456049Y-51939500D01*
X180223951Y-51939500D01*
X180178164Y-51947140D01*
X179995015Y-51977702D01*
X179775504Y-52053061D01*
X179775495Y-52053064D01*
X179571371Y-52163531D01*
X179571365Y-52163535D01*
X179388222Y-52306081D01*
X179388219Y-52306084D01*
X179231016Y-52476852D01*
X179104075Y-52671151D01*
X179010842Y-52883699D01*
X178953866Y-53108691D01*
X178953864Y-53108702D01*
X178934700Y-53339993D01*
X178345300Y-53339993D01*
X178326135Y-53108702D01*
X178326133Y-53108691D01*
X178269157Y-52883699D01*
X178175924Y-52671151D01*
X178048983Y-52476852D01*
X178048980Y-52476849D01*
X178048979Y-52476847D01*
X177891784Y-52306087D01*
X177891779Y-52306083D01*
X177891777Y-52306081D01*
X177708634Y-52163535D01*
X177708628Y-52163531D01*
X177504504Y-52053064D01*
X177504495Y-52053061D01*
X177284984Y-51977702D01*
X177113282Y-51949050D01*
X177056049Y-51939500D01*
X176823951Y-51939500D01*
X176778164Y-51947140D01*
X176595015Y-51977702D01*
X176375504Y-52053061D01*
X176375495Y-52053064D01*
X176171371Y-52163531D01*
X176171365Y-52163535D01*
X175988222Y-52306081D01*
X175988219Y-52306084D01*
X175831016Y-52476852D01*
X175704075Y-52671151D01*
X175610842Y-52883699D01*
X175553866Y-53108691D01*
X175553864Y-53108702D01*
X175534700Y-53339993D01*
X152900500Y-53339993D01*
X152900500Y-51424500D01*
X152920185Y-51357461D01*
X152972989Y-51311706D01*
X153024500Y-51300500D01*
X208624998Y-51300500D01*
X208692037Y-51320185D01*
G37*
%TD.AperFunction*%
%TD*%
M02*
