%TF.GenerationSoftware,KiCad,Pcbnew,8.0.3*%
%TF.CreationDate,2025-07-08T18:19:17+07:00*%
%TF.ProjectId,tda2030,74646132-3033-4302-9e6b-696361645f70,rev?*%
%TF.SameCoordinates,Original*%
%TF.FileFunction,Legend,Bot*%
%TF.FilePolarity,Positive*%
%FSLAX46Y46*%
G04 Gerber Fmt 4.6, Leading zero omitted, Abs format (unit mm)*
G04 Created by KiCad (PCBNEW 8.0.3) date 2025-07-08 18:19:17*
%MOMM*%
%LPD*%
G01*
G04 APERTURE LIST*
%ADD10C,0.300000*%
G04 APERTURE END LIST*
D10*
X221989638Y-59093558D02*
X219989638Y-59093558D01*
X219989638Y-59093558D02*
X221418209Y-59760225D01*
X221418209Y-59760225D02*
X219989638Y-60426891D01*
X219989638Y-60426891D02*
X221989638Y-60426891D01*
X221989638Y-62236415D02*
X220942019Y-62236415D01*
X220942019Y-62236415D02*
X220751542Y-62141177D01*
X220751542Y-62141177D02*
X220656304Y-61950701D01*
X220656304Y-61950701D02*
X220656304Y-61569748D01*
X220656304Y-61569748D02*
X220751542Y-61379272D01*
X221894400Y-62236415D02*
X221989638Y-62045939D01*
X221989638Y-62045939D02*
X221989638Y-61569748D01*
X221989638Y-61569748D02*
X221894400Y-61379272D01*
X221894400Y-61379272D02*
X221703923Y-61284034D01*
X221703923Y-61284034D02*
X221513447Y-61284034D01*
X221513447Y-61284034D02*
X221322971Y-61379272D01*
X221322971Y-61379272D02*
X221227733Y-61569748D01*
X221227733Y-61569748D02*
X221227733Y-62045939D01*
X221227733Y-62045939D02*
X221132495Y-62236415D01*
X221989638Y-64045939D02*
X219989638Y-64045939D01*
X221894400Y-64045939D02*
X221989638Y-63855463D01*
X221989638Y-63855463D02*
X221989638Y-63474510D01*
X221989638Y-63474510D02*
X221894400Y-63284034D01*
X221894400Y-63284034D02*
X221799161Y-63188796D01*
X221799161Y-63188796D02*
X221608685Y-63093558D01*
X221608685Y-63093558D02*
X221037257Y-63093558D01*
X221037257Y-63093558D02*
X220846780Y-63188796D01*
X220846780Y-63188796D02*
X220751542Y-63284034D01*
X220751542Y-63284034D02*
X220656304Y-63474510D01*
X220656304Y-63474510D02*
X220656304Y-63855463D01*
X220656304Y-63855463D02*
X220751542Y-64045939D01*
X221894400Y-65760225D02*
X221989638Y-65569749D01*
X221989638Y-65569749D02*
X221989638Y-65188796D01*
X221989638Y-65188796D02*
X221894400Y-64998320D01*
X221894400Y-64998320D02*
X221703923Y-64903082D01*
X221703923Y-64903082D02*
X220942019Y-64903082D01*
X220942019Y-64903082D02*
X220751542Y-64998320D01*
X220751542Y-64998320D02*
X220656304Y-65188796D01*
X220656304Y-65188796D02*
X220656304Y-65569749D01*
X220656304Y-65569749D02*
X220751542Y-65760225D01*
X220751542Y-65760225D02*
X220942019Y-65855463D01*
X220942019Y-65855463D02*
X221132495Y-65855463D01*
X221132495Y-65855463D02*
X221322971Y-64903082D01*
X221989638Y-68236416D02*
X219989638Y-68236416D01*
X220751542Y-68236416D02*
X220656304Y-68426892D01*
X220656304Y-68426892D02*
X220656304Y-68807845D01*
X220656304Y-68807845D02*
X220751542Y-68998321D01*
X220751542Y-68998321D02*
X220846780Y-69093559D01*
X220846780Y-69093559D02*
X221037257Y-69188797D01*
X221037257Y-69188797D02*
X221608685Y-69188797D01*
X221608685Y-69188797D02*
X221799161Y-69093559D01*
X221799161Y-69093559D02*
X221894400Y-68998321D01*
X221894400Y-68998321D02*
X221989638Y-68807845D01*
X221989638Y-68807845D02*
X221989638Y-68426892D01*
X221989638Y-68426892D02*
X221894400Y-68236416D01*
X220656304Y-69855464D02*
X221989638Y-70331654D01*
X220656304Y-70807845D02*
X221989638Y-70331654D01*
X221989638Y-70331654D02*
X222465828Y-70141178D01*
X222465828Y-70141178D02*
X222561066Y-70045940D01*
X222561066Y-70045940D02*
X222656304Y-69855464D01*
X221989638Y-74045941D02*
X221989638Y-73093560D01*
X221989638Y-73093560D02*
X219989638Y-73093560D01*
X219989638Y-74426894D02*
X219989638Y-75569751D01*
X221989638Y-74998322D02*
X219989638Y-74998322D01*
X221989638Y-77093561D02*
X219989638Y-77093561D01*
X221894400Y-77093561D02*
X221989638Y-76903085D01*
X221989638Y-76903085D02*
X221989638Y-76522132D01*
X221989638Y-76522132D02*
X221894400Y-76331656D01*
X221894400Y-76331656D02*
X221799161Y-76236418D01*
X221799161Y-76236418D02*
X221608685Y-76141180D01*
X221608685Y-76141180D02*
X221037257Y-76141180D01*
X221037257Y-76141180D02*
X220846780Y-76236418D01*
X220846780Y-76236418D02*
X220751542Y-76331656D01*
X220751542Y-76331656D02*
X220656304Y-76522132D01*
X220656304Y-76522132D02*
X220656304Y-76903085D01*
X220656304Y-76903085D02*
X220751542Y-77093561D01*
X221989638Y-78331656D02*
X221894400Y-78141180D01*
X221894400Y-78141180D02*
X221799161Y-78045942D01*
X221799161Y-78045942D02*
X221608685Y-77950704D01*
X221608685Y-77950704D02*
X221037257Y-77950704D01*
X221037257Y-77950704D02*
X220846780Y-78045942D01*
X220846780Y-78045942D02*
X220751542Y-78141180D01*
X220751542Y-78141180D02*
X220656304Y-78331656D01*
X220656304Y-78331656D02*
X220656304Y-78617371D01*
X220656304Y-78617371D02*
X220751542Y-78807847D01*
X220751542Y-78807847D02*
X220846780Y-78903085D01*
X220846780Y-78903085D02*
X221037257Y-78998323D01*
X221037257Y-78998323D02*
X221608685Y-78998323D01*
X221608685Y-78998323D02*
X221799161Y-78903085D01*
X221799161Y-78903085D02*
X221894400Y-78807847D01*
X221894400Y-78807847D02*
X221989638Y-78617371D01*
X221989638Y-78617371D02*
X221989638Y-78331656D01*
X221894400Y-80712609D02*
X221989638Y-80522133D01*
X221989638Y-80522133D02*
X221989638Y-80141180D01*
X221989638Y-80141180D02*
X221894400Y-79950704D01*
X221894400Y-79950704D02*
X221799161Y-79855466D01*
X221799161Y-79855466D02*
X221608685Y-79760228D01*
X221608685Y-79760228D02*
X221037257Y-79760228D01*
X221037257Y-79760228D02*
X220846780Y-79855466D01*
X220846780Y-79855466D02*
X220751542Y-79950704D01*
X220751542Y-79950704D02*
X220656304Y-80141180D01*
X220656304Y-80141180D02*
X220656304Y-80522133D01*
X220656304Y-80522133D02*
X220751542Y-80712609D01*
X221989638Y-81569752D02*
X220656304Y-81569752D01*
X219989638Y-81569752D02*
X220084876Y-81474514D01*
X220084876Y-81474514D02*
X220180114Y-81569752D01*
X220180114Y-81569752D02*
X220084876Y-81664990D01*
X220084876Y-81664990D02*
X219989638Y-81569752D01*
X219989638Y-81569752D02*
X220180114Y-81569752D01*
X221989638Y-82522133D02*
X220656304Y-82522133D01*
X221037257Y-82522133D02*
X220846780Y-82617371D01*
X220846780Y-82617371D02*
X220751542Y-82712609D01*
X220751542Y-82712609D02*
X220656304Y-82903085D01*
X220656304Y-82903085D02*
X220656304Y-83093562D01*
X221894400Y-84617371D02*
X221989638Y-84426895D01*
X221989638Y-84426895D02*
X221989638Y-84045942D01*
X221989638Y-84045942D02*
X221894400Y-83855466D01*
X221894400Y-83855466D02*
X221799161Y-83760228D01*
X221799161Y-83760228D02*
X221608685Y-83664990D01*
X221608685Y-83664990D02*
X221037257Y-83664990D01*
X221037257Y-83664990D02*
X220846780Y-83760228D01*
X220846780Y-83760228D02*
X220751542Y-83855466D01*
X220751542Y-83855466D02*
X220656304Y-84045942D01*
X220656304Y-84045942D02*
X220656304Y-84426895D01*
X220656304Y-84426895D02*
X220751542Y-84617371D01*
X220656304Y-86331657D02*
X221989638Y-86331657D01*
X220656304Y-85474514D02*
X221703923Y-85474514D01*
X221703923Y-85474514D02*
X221894400Y-85569752D01*
X221894400Y-85569752D02*
X221989638Y-85760228D01*
X221989638Y-85760228D02*
X221989638Y-86045943D01*
X221989638Y-86045943D02*
X221894400Y-86236419D01*
X221894400Y-86236419D02*
X221799161Y-86331657D01*
X221989638Y-87284038D02*
X220656304Y-87284038D01*
X219989638Y-87284038D02*
X220084876Y-87188800D01*
X220084876Y-87188800D02*
X220180114Y-87284038D01*
X220180114Y-87284038D02*
X220084876Y-87379276D01*
X220084876Y-87379276D02*
X219989638Y-87284038D01*
X219989638Y-87284038D02*
X220180114Y-87284038D01*
X220656304Y-87950705D02*
X220656304Y-88712609D01*
X219989638Y-88236419D02*
X221703923Y-88236419D01*
X221703923Y-88236419D02*
X221894400Y-88331657D01*
X221894400Y-88331657D02*
X221989638Y-88522133D01*
X221989638Y-88522133D02*
X221989638Y-88712609D01*
X208581164Y-59188796D02*
X208509736Y-59045939D01*
X208509736Y-59045939D02*
X208366878Y-58974510D01*
X208366878Y-58974510D02*
X207081164Y-58974510D01*
X208581164Y-59974510D02*
X208509736Y-59831653D01*
X208509736Y-59831653D02*
X208438307Y-59760224D01*
X208438307Y-59760224D02*
X208295450Y-59688796D01*
X208295450Y-59688796D02*
X207866878Y-59688796D01*
X207866878Y-59688796D02*
X207724021Y-59760224D01*
X207724021Y-59760224D02*
X207652593Y-59831653D01*
X207652593Y-59831653D02*
X207581164Y-59974510D01*
X207581164Y-59974510D02*
X207581164Y-60188796D01*
X207581164Y-60188796D02*
X207652593Y-60331653D01*
X207652593Y-60331653D02*
X207724021Y-60403082D01*
X207724021Y-60403082D02*
X207866878Y-60474510D01*
X207866878Y-60474510D02*
X208295450Y-60474510D01*
X208295450Y-60474510D02*
X208438307Y-60403082D01*
X208438307Y-60403082D02*
X208509736Y-60331653D01*
X208509736Y-60331653D02*
X208581164Y-60188796D01*
X208581164Y-60188796D02*
X208581164Y-59974510D01*
X207581164Y-60974510D02*
X208581164Y-61260225D01*
X208581164Y-61260225D02*
X207866878Y-61545939D01*
X207866878Y-61545939D02*
X208581164Y-61831653D01*
X208581164Y-61831653D02*
X207581164Y-62117367D01*
X208581164Y-64474511D02*
X207081164Y-64474511D01*
X208509736Y-64474511D02*
X208581164Y-64331653D01*
X208581164Y-64331653D02*
X208581164Y-64045939D01*
X208581164Y-64045939D02*
X208509736Y-63903082D01*
X208509736Y-63903082D02*
X208438307Y-63831653D01*
X208438307Y-63831653D02*
X208295450Y-63760225D01*
X208295450Y-63760225D02*
X207866878Y-63760225D01*
X207866878Y-63760225D02*
X207724021Y-63831653D01*
X207724021Y-63831653D02*
X207652593Y-63903082D01*
X207652593Y-63903082D02*
X207581164Y-64045939D01*
X207581164Y-64045939D02*
X207581164Y-64331653D01*
X207581164Y-64331653D02*
X207652593Y-64474511D01*
X208581164Y-65188796D02*
X207581164Y-65188796D01*
X207081164Y-65188796D02*
X207152593Y-65117368D01*
X207152593Y-65117368D02*
X207224021Y-65188796D01*
X207224021Y-65188796D02*
X207152593Y-65260225D01*
X207152593Y-65260225D02*
X207081164Y-65188796D01*
X207081164Y-65188796D02*
X207224021Y-65188796D01*
X208509736Y-65831654D02*
X208581164Y-65974511D01*
X208581164Y-65974511D02*
X208581164Y-66260225D01*
X208581164Y-66260225D02*
X208509736Y-66403082D01*
X208509736Y-66403082D02*
X208366878Y-66474511D01*
X208366878Y-66474511D02*
X208295450Y-66474511D01*
X208295450Y-66474511D02*
X208152593Y-66403082D01*
X208152593Y-66403082D02*
X208081164Y-66260225D01*
X208081164Y-66260225D02*
X208081164Y-66045940D01*
X208081164Y-66045940D02*
X208009736Y-65903082D01*
X208009736Y-65903082D02*
X207866878Y-65831654D01*
X207866878Y-65831654D02*
X207795450Y-65831654D01*
X207795450Y-65831654D02*
X207652593Y-65903082D01*
X207652593Y-65903082D02*
X207581164Y-66045940D01*
X207581164Y-66045940D02*
X207581164Y-66260225D01*
X207581164Y-66260225D02*
X207652593Y-66403082D01*
X207581164Y-66903083D02*
X207581164Y-67474511D01*
X207081164Y-67117368D02*
X208366878Y-67117368D01*
X208366878Y-67117368D02*
X208509736Y-67188797D01*
X208509736Y-67188797D02*
X208581164Y-67331654D01*
X208581164Y-67331654D02*
X208581164Y-67474511D01*
X208581164Y-68188797D02*
X208509736Y-68045940D01*
X208509736Y-68045940D02*
X208438307Y-67974511D01*
X208438307Y-67974511D02*
X208295450Y-67903083D01*
X208295450Y-67903083D02*
X207866878Y-67903083D01*
X207866878Y-67903083D02*
X207724021Y-67974511D01*
X207724021Y-67974511D02*
X207652593Y-68045940D01*
X207652593Y-68045940D02*
X207581164Y-68188797D01*
X207581164Y-68188797D02*
X207581164Y-68403083D01*
X207581164Y-68403083D02*
X207652593Y-68545940D01*
X207652593Y-68545940D02*
X207724021Y-68617369D01*
X207724021Y-68617369D02*
X207866878Y-68688797D01*
X207866878Y-68688797D02*
X208295450Y-68688797D01*
X208295450Y-68688797D02*
X208438307Y-68617369D01*
X208438307Y-68617369D02*
X208509736Y-68545940D01*
X208509736Y-68545940D02*
X208581164Y-68403083D01*
X208581164Y-68403083D02*
X208581164Y-68188797D01*
X208581164Y-69331654D02*
X207581164Y-69331654D01*
X207866878Y-69331654D02*
X207724021Y-69403083D01*
X207724021Y-69403083D02*
X207652593Y-69474512D01*
X207652593Y-69474512D02*
X207581164Y-69617369D01*
X207581164Y-69617369D02*
X207581164Y-69760226D01*
X207581164Y-70045940D02*
X207581164Y-70617368D01*
X207081164Y-70260225D02*
X208366878Y-70260225D01*
X208366878Y-70260225D02*
X208509736Y-70331654D01*
X208509736Y-70331654D02*
X208581164Y-70474511D01*
X208581164Y-70474511D02*
X208581164Y-70617368D01*
X210996080Y-59188796D02*
X210924652Y-59045939D01*
X210924652Y-59045939D02*
X210781794Y-58974510D01*
X210781794Y-58974510D02*
X209496080Y-58974510D01*
X210996080Y-59974510D02*
X210924652Y-59831653D01*
X210924652Y-59831653D02*
X210853223Y-59760224D01*
X210853223Y-59760224D02*
X210710366Y-59688796D01*
X210710366Y-59688796D02*
X210281794Y-59688796D01*
X210281794Y-59688796D02*
X210138937Y-59760224D01*
X210138937Y-59760224D02*
X210067509Y-59831653D01*
X210067509Y-59831653D02*
X209996080Y-59974510D01*
X209996080Y-59974510D02*
X209996080Y-60188796D01*
X209996080Y-60188796D02*
X210067509Y-60331653D01*
X210067509Y-60331653D02*
X210138937Y-60403082D01*
X210138937Y-60403082D02*
X210281794Y-60474510D01*
X210281794Y-60474510D02*
X210710366Y-60474510D01*
X210710366Y-60474510D02*
X210853223Y-60403082D01*
X210853223Y-60403082D02*
X210924652Y-60331653D01*
X210924652Y-60331653D02*
X210996080Y-60188796D01*
X210996080Y-60188796D02*
X210996080Y-59974510D01*
X209996080Y-60974510D02*
X210996080Y-61260225D01*
X210996080Y-61260225D02*
X210281794Y-61545939D01*
X210281794Y-61545939D02*
X210996080Y-61831653D01*
X210996080Y-61831653D02*
X209996080Y-62117367D01*
X210924652Y-64403082D02*
X210996080Y-64260225D01*
X210996080Y-64260225D02*
X210996080Y-63974511D01*
X210996080Y-63974511D02*
X210924652Y-63831653D01*
X210924652Y-63831653D02*
X210781794Y-63760225D01*
X210781794Y-63760225D02*
X210210366Y-63760225D01*
X210210366Y-63760225D02*
X210067509Y-63831653D01*
X210067509Y-63831653D02*
X209996080Y-63974511D01*
X209996080Y-63974511D02*
X209996080Y-64260225D01*
X209996080Y-64260225D02*
X210067509Y-64403082D01*
X210067509Y-64403082D02*
X210210366Y-64474511D01*
X210210366Y-64474511D02*
X210353223Y-64474511D01*
X210353223Y-64474511D02*
X210496080Y-63760225D01*
X209996080Y-64903082D02*
X209996080Y-65474510D01*
X210996080Y-65117367D02*
X209710366Y-65117367D01*
X209710366Y-65117367D02*
X209567509Y-65188796D01*
X209567509Y-65188796D02*
X209496080Y-65331653D01*
X209496080Y-65331653D02*
X209496080Y-65474510D01*
X209996080Y-65760225D02*
X209996080Y-66331653D01*
X210996080Y-65974510D02*
X209710366Y-65974510D01*
X209710366Y-65974510D02*
X209567509Y-66045939D01*
X209567509Y-66045939D02*
X209496080Y-66188796D01*
X209496080Y-66188796D02*
X209496080Y-66331653D01*
X210996080Y-66831653D02*
X209996080Y-66831653D01*
X209496080Y-66831653D02*
X209567509Y-66760225D01*
X209567509Y-66760225D02*
X209638937Y-66831653D01*
X209638937Y-66831653D02*
X209567509Y-66903082D01*
X209567509Y-66903082D02*
X209496080Y-66831653D01*
X209496080Y-66831653D02*
X209638937Y-66831653D01*
X210924652Y-68188797D02*
X210996080Y-68045939D01*
X210996080Y-68045939D02*
X210996080Y-67760225D01*
X210996080Y-67760225D02*
X210924652Y-67617368D01*
X210924652Y-67617368D02*
X210853223Y-67545939D01*
X210853223Y-67545939D02*
X210710366Y-67474511D01*
X210710366Y-67474511D02*
X210281794Y-67474511D01*
X210281794Y-67474511D02*
X210138937Y-67545939D01*
X210138937Y-67545939D02*
X210067509Y-67617368D01*
X210067509Y-67617368D02*
X209996080Y-67760225D01*
X209996080Y-67760225D02*
X209996080Y-68045939D01*
X209996080Y-68045939D02*
X210067509Y-68188797D01*
X210996080Y-68831653D02*
X209996080Y-68831653D01*
X209496080Y-68831653D02*
X209567509Y-68760225D01*
X209567509Y-68760225D02*
X209638937Y-68831653D01*
X209638937Y-68831653D02*
X209567509Y-68903082D01*
X209567509Y-68903082D02*
X209496080Y-68831653D01*
X209496080Y-68831653D02*
X209638937Y-68831653D01*
X210924652Y-70117368D02*
X210996080Y-69974511D01*
X210996080Y-69974511D02*
X210996080Y-69688797D01*
X210996080Y-69688797D02*
X210924652Y-69545939D01*
X210924652Y-69545939D02*
X210781794Y-69474511D01*
X210781794Y-69474511D02*
X210210366Y-69474511D01*
X210210366Y-69474511D02*
X210067509Y-69545939D01*
X210067509Y-69545939D02*
X209996080Y-69688797D01*
X209996080Y-69688797D02*
X209996080Y-69974511D01*
X209996080Y-69974511D02*
X210067509Y-70117368D01*
X210067509Y-70117368D02*
X210210366Y-70188797D01*
X210210366Y-70188797D02*
X210353223Y-70188797D01*
X210353223Y-70188797D02*
X210496080Y-69474511D01*
X209996080Y-70831653D02*
X210996080Y-70831653D01*
X210138937Y-70831653D02*
X210067509Y-70903082D01*
X210067509Y-70903082D02*
X209996080Y-71045939D01*
X209996080Y-71045939D02*
X209996080Y-71260225D01*
X209996080Y-71260225D02*
X210067509Y-71403082D01*
X210067509Y-71403082D02*
X210210366Y-71474511D01*
X210210366Y-71474511D02*
X210996080Y-71474511D01*
X210924652Y-72831654D02*
X210996080Y-72688796D01*
X210996080Y-72688796D02*
X210996080Y-72403082D01*
X210996080Y-72403082D02*
X210924652Y-72260225D01*
X210924652Y-72260225D02*
X210853223Y-72188796D01*
X210853223Y-72188796D02*
X210710366Y-72117368D01*
X210710366Y-72117368D02*
X210281794Y-72117368D01*
X210281794Y-72117368D02*
X210138937Y-72188796D01*
X210138937Y-72188796D02*
X210067509Y-72260225D01*
X210067509Y-72260225D02*
X209996080Y-72403082D01*
X209996080Y-72403082D02*
X209996080Y-72688796D01*
X209996080Y-72688796D02*
X210067509Y-72831654D01*
X209996080Y-73331653D02*
X210996080Y-73688796D01*
X209996080Y-74045939D02*
X210996080Y-73688796D01*
X210996080Y-73688796D02*
X211353223Y-73545939D01*
X211353223Y-73545939D02*
X211424652Y-73474510D01*
X211424652Y-73474510D02*
X211496080Y-73331653D01*
X213410996Y-59760225D02*
X213410996Y-58903082D01*
X213410996Y-59331653D02*
X211910996Y-59331653D01*
X211910996Y-59331653D02*
X212125282Y-59188796D01*
X212125282Y-59188796D02*
X212268139Y-59045939D01*
X212268139Y-59045939D02*
X212339568Y-58903082D01*
X211910996Y-60688796D02*
X211910996Y-60831653D01*
X211910996Y-60831653D02*
X211982425Y-60974510D01*
X211982425Y-60974510D02*
X212053853Y-61045939D01*
X212053853Y-61045939D02*
X212196710Y-61117367D01*
X212196710Y-61117367D02*
X212482425Y-61188796D01*
X212482425Y-61188796D02*
X212839568Y-61188796D01*
X212839568Y-61188796D02*
X213125282Y-61117367D01*
X213125282Y-61117367D02*
X213268139Y-61045939D01*
X213268139Y-61045939D02*
X213339568Y-60974510D01*
X213339568Y-60974510D02*
X213410996Y-60831653D01*
X213410996Y-60831653D02*
X213410996Y-60688796D01*
X213410996Y-60688796D02*
X213339568Y-60545939D01*
X213339568Y-60545939D02*
X213268139Y-60474510D01*
X213268139Y-60474510D02*
X213125282Y-60403081D01*
X213125282Y-60403081D02*
X212839568Y-60331653D01*
X212839568Y-60331653D02*
X212482425Y-60331653D01*
X212482425Y-60331653D02*
X212196710Y-60403081D01*
X212196710Y-60403081D02*
X212053853Y-60474510D01*
X212053853Y-60474510D02*
X211982425Y-60545939D01*
X211982425Y-60545939D02*
X211910996Y-60688796D01*
X212410996Y-61688795D02*
X213410996Y-61974510D01*
X213410996Y-61974510D02*
X212696710Y-62260224D01*
X212696710Y-62260224D02*
X213410996Y-62545938D01*
X213410996Y-62545938D02*
X212410996Y-62831652D01*
X213410996Y-65188796D02*
X212625282Y-65188796D01*
X212625282Y-65188796D02*
X212482425Y-65117367D01*
X212482425Y-65117367D02*
X212410996Y-64974510D01*
X212410996Y-64974510D02*
X212410996Y-64688796D01*
X212410996Y-64688796D02*
X212482425Y-64545938D01*
X213339568Y-65188796D02*
X213410996Y-65045938D01*
X213410996Y-65045938D02*
X213410996Y-64688796D01*
X213410996Y-64688796D02*
X213339568Y-64545938D01*
X213339568Y-64545938D02*
X213196710Y-64474510D01*
X213196710Y-64474510D02*
X213053853Y-64474510D01*
X213053853Y-64474510D02*
X212910996Y-64545938D01*
X212910996Y-64545938D02*
X212839568Y-64688796D01*
X212839568Y-64688796D02*
X212839568Y-65045938D01*
X212839568Y-65045938D02*
X212768139Y-65188796D01*
X212410996Y-65688796D02*
X212410996Y-66260224D01*
X211910996Y-65903081D02*
X213196710Y-65903081D01*
X213196710Y-65903081D02*
X213339568Y-65974510D01*
X213339568Y-65974510D02*
X213410996Y-66117367D01*
X213410996Y-66117367D02*
X213410996Y-66260224D01*
X212553853Y-68117367D02*
X212482425Y-67974510D01*
X212482425Y-67974510D02*
X212410996Y-67903081D01*
X212410996Y-67903081D02*
X212268139Y-67831653D01*
X212268139Y-67831653D02*
X212196710Y-67831653D01*
X212196710Y-67831653D02*
X212053853Y-67903081D01*
X212053853Y-67903081D02*
X211982425Y-67974510D01*
X211982425Y-67974510D02*
X211910996Y-68117367D01*
X211910996Y-68117367D02*
X211910996Y-68403081D01*
X211910996Y-68403081D02*
X211982425Y-68545939D01*
X211982425Y-68545939D02*
X212053853Y-68617367D01*
X212053853Y-68617367D02*
X212196710Y-68688796D01*
X212196710Y-68688796D02*
X212268139Y-68688796D01*
X212268139Y-68688796D02*
X212410996Y-68617367D01*
X212410996Y-68617367D02*
X212482425Y-68545939D01*
X212482425Y-68545939D02*
X212553853Y-68403081D01*
X212553853Y-68403081D02*
X212553853Y-68117367D01*
X212553853Y-68117367D02*
X212625282Y-67974510D01*
X212625282Y-67974510D02*
X212696710Y-67903081D01*
X212696710Y-67903081D02*
X212839568Y-67831653D01*
X212839568Y-67831653D02*
X213125282Y-67831653D01*
X213125282Y-67831653D02*
X213268139Y-67903081D01*
X213268139Y-67903081D02*
X213339568Y-67974510D01*
X213339568Y-67974510D02*
X213410996Y-68117367D01*
X213410996Y-68117367D02*
X213410996Y-68403081D01*
X213410996Y-68403081D02*
X213339568Y-68545939D01*
X213339568Y-68545939D02*
X213268139Y-68617367D01*
X213268139Y-68617367D02*
X213125282Y-68688796D01*
X213125282Y-68688796D02*
X212839568Y-68688796D01*
X212839568Y-68688796D02*
X212696710Y-68617367D01*
X212696710Y-68617367D02*
X212625282Y-68545939D01*
X212625282Y-68545939D02*
X212553853Y-68403081D01*
X213410996Y-69545938D02*
X213339568Y-69403081D01*
X213339568Y-69403081D02*
X213268139Y-69331652D01*
X213268139Y-69331652D02*
X213125282Y-69260224D01*
X213125282Y-69260224D02*
X212696710Y-69260224D01*
X212696710Y-69260224D02*
X212553853Y-69331652D01*
X212553853Y-69331652D02*
X212482425Y-69403081D01*
X212482425Y-69403081D02*
X212410996Y-69545938D01*
X212410996Y-69545938D02*
X212410996Y-69760224D01*
X212410996Y-69760224D02*
X212482425Y-69903081D01*
X212482425Y-69903081D02*
X212553853Y-69974510D01*
X212553853Y-69974510D02*
X212696710Y-70045938D01*
X212696710Y-70045938D02*
X213125282Y-70045938D01*
X213125282Y-70045938D02*
X213268139Y-69974510D01*
X213268139Y-69974510D02*
X213339568Y-69903081D01*
X213339568Y-69903081D02*
X213410996Y-69760224D01*
X213410996Y-69760224D02*
X213410996Y-69545938D01*
X213410996Y-70688795D02*
X211910996Y-70688795D01*
X213410996Y-71331653D02*
X212625282Y-71331653D01*
X212625282Y-71331653D02*
X212482425Y-71260224D01*
X212482425Y-71260224D02*
X212410996Y-71117367D01*
X212410996Y-71117367D02*
X212410996Y-70903081D01*
X212410996Y-70903081D02*
X212482425Y-70760224D01*
X212482425Y-70760224D02*
X212553853Y-70688795D01*
X213410996Y-72045938D02*
X212410996Y-72045938D01*
X212553853Y-72045938D02*
X212482425Y-72117367D01*
X212482425Y-72117367D02*
X212410996Y-72260224D01*
X212410996Y-72260224D02*
X212410996Y-72474510D01*
X212410996Y-72474510D02*
X212482425Y-72617367D01*
X212482425Y-72617367D02*
X212625282Y-72688796D01*
X212625282Y-72688796D02*
X213410996Y-72688796D01*
X212625282Y-72688796D02*
X212482425Y-72760224D01*
X212482425Y-72760224D02*
X212410996Y-72903081D01*
X212410996Y-72903081D02*
X212410996Y-73117367D01*
X212410996Y-73117367D02*
X212482425Y-73260224D01*
X212482425Y-73260224D02*
X212625282Y-73331653D01*
X212625282Y-73331653D02*
X213410996Y-73331653D01*
X215825912Y-59760225D02*
X215825912Y-58903082D01*
X215825912Y-59331653D02*
X214325912Y-59331653D01*
X214325912Y-59331653D02*
X214540198Y-59188796D01*
X214540198Y-59188796D02*
X214683055Y-59045939D01*
X214683055Y-59045939D02*
X214754484Y-58903082D01*
X214325912Y-61117367D02*
X214325912Y-60403081D01*
X214325912Y-60403081D02*
X215040198Y-60331653D01*
X215040198Y-60331653D02*
X214968769Y-60403081D01*
X214968769Y-60403081D02*
X214897341Y-60545939D01*
X214897341Y-60545939D02*
X214897341Y-60903081D01*
X214897341Y-60903081D02*
X214968769Y-61045939D01*
X214968769Y-61045939D02*
X215040198Y-61117367D01*
X215040198Y-61117367D02*
X215183055Y-61188796D01*
X215183055Y-61188796D02*
X215540198Y-61188796D01*
X215540198Y-61188796D02*
X215683055Y-61117367D01*
X215683055Y-61117367D02*
X215754484Y-61045939D01*
X215754484Y-61045939D02*
X215825912Y-60903081D01*
X215825912Y-60903081D02*
X215825912Y-60545939D01*
X215825912Y-60545939D02*
X215754484Y-60403081D01*
X215754484Y-60403081D02*
X215683055Y-60331653D01*
X214825912Y-61688795D02*
X215825912Y-61974510D01*
X215825912Y-61974510D02*
X215111626Y-62260224D01*
X215111626Y-62260224D02*
X215825912Y-62545938D01*
X215825912Y-62545938D02*
X214825912Y-62831652D01*
X215825912Y-65188796D02*
X215040198Y-65188796D01*
X215040198Y-65188796D02*
X214897341Y-65117367D01*
X214897341Y-65117367D02*
X214825912Y-64974510D01*
X214825912Y-64974510D02*
X214825912Y-64688796D01*
X214825912Y-64688796D02*
X214897341Y-64545938D01*
X215754484Y-65188796D02*
X215825912Y-65045938D01*
X215825912Y-65045938D02*
X215825912Y-64688796D01*
X215825912Y-64688796D02*
X215754484Y-64545938D01*
X215754484Y-64545938D02*
X215611626Y-64474510D01*
X215611626Y-64474510D02*
X215468769Y-64474510D01*
X215468769Y-64474510D02*
X215325912Y-64545938D01*
X215325912Y-64545938D02*
X215254484Y-64688796D01*
X215254484Y-64688796D02*
X215254484Y-65045938D01*
X215254484Y-65045938D02*
X215183055Y-65188796D01*
X214825912Y-65688796D02*
X214825912Y-66260224D01*
X214325912Y-65903081D02*
X215611626Y-65903081D01*
X215611626Y-65903081D02*
X215754484Y-65974510D01*
X215754484Y-65974510D02*
X215825912Y-66117367D01*
X215825912Y-66117367D02*
X215825912Y-66260224D01*
X214825912Y-68545939D02*
X215825912Y-68545939D01*
X214254484Y-68188796D02*
X215325912Y-67831653D01*
X215325912Y-67831653D02*
X215325912Y-68760224D01*
X215825912Y-69545938D02*
X215754484Y-69403081D01*
X215754484Y-69403081D02*
X215683055Y-69331652D01*
X215683055Y-69331652D02*
X215540198Y-69260224D01*
X215540198Y-69260224D02*
X215111626Y-69260224D01*
X215111626Y-69260224D02*
X214968769Y-69331652D01*
X214968769Y-69331652D02*
X214897341Y-69403081D01*
X214897341Y-69403081D02*
X214825912Y-69545938D01*
X214825912Y-69545938D02*
X214825912Y-69760224D01*
X214825912Y-69760224D02*
X214897341Y-69903081D01*
X214897341Y-69903081D02*
X214968769Y-69974510D01*
X214968769Y-69974510D02*
X215111626Y-70045938D01*
X215111626Y-70045938D02*
X215540198Y-70045938D01*
X215540198Y-70045938D02*
X215683055Y-69974510D01*
X215683055Y-69974510D02*
X215754484Y-69903081D01*
X215754484Y-69903081D02*
X215825912Y-69760224D01*
X215825912Y-69760224D02*
X215825912Y-69545938D01*
X215825912Y-70688795D02*
X214325912Y-70688795D01*
X215825912Y-71331653D02*
X215040198Y-71331653D01*
X215040198Y-71331653D02*
X214897341Y-71260224D01*
X214897341Y-71260224D02*
X214825912Y-71117367D01*
X214825912Y-71117367D02*
X214825912Y-70903081D01*
X214825912Y-70903081D02*
X214897341Y-70760224D01*
X214897341Y-70760224D02*
X214968769Y-70688795D01*
X215825912Y-72045938D02*
X214825912Y-72045938D01*
X214968769Y-72045938D02*
X214897341Y-72117367D01*
X214897341Y-72117367D02*
X214825912Y-72260224D01*
X214825912Y-72260224D02*
X214825912Y-72474510D01*
X214825912Y-72474510D02*
X214897341Y-72617367D01*
X214897341Y-72617367D02*
X215040198Y-72688796D01*
X215040198Y-72688796D02*
X215825912Y-72688796D01*
X215040198Y-72688796D02*
X214897341Y-72760224D01*
X214897341Y-72760224D02*
X214825912Y-72903081D01*
X214825912Y-72903081D02*
X214825912Y-73117367D01*
X214825912Y-73117367D02*
X214897341Y-73260224D01*
X214897341Y-73260224D02*
X215040198Y-73331653D01*
X215040198Y-73331653D02*
X215825912Y-73331653D01*
X218240828Y-59617368D02*
X217455114Y-59617368D01*
X217455114Y-59617368D02*
X217312257Y-59545939D01*
X217312257Y-59545939D02*
X217240828Y-59403082D01*
X217240828Y-59403082D02*
X217240828Y-59117368D01*
X217240828Y-59117368D02*
X217312257Y-58974510D01*
X218169400Y-59617368D02*
X218240828Y-59474510D01*
X218240828Y-59474510D02*
X218240828Y-59117368D01*
X218240828Y-59117368D02*
X218169400Y-58974510D01*
X218169400Y-58974510D02*
X218026542Y-58903082D01*
X218026542Y-58903082D02*
X217883685Y-58903082D01*
X217883685Y-58903082D02*
X217740828Y-58974510D01*
X217740828Y-58974510D02*
X217669400Y-59117368D01*
X217669400Y-59117368D02*
X217669400Y-59474510D01*
X217669400Y-59474510D02*
X217597971Y-59617368D01*
X217240828Y-60117368D02*
X217240828Y-60688796D01*
X216740828Y-60331653D02*
X218026542Y-60331653D01*
X218026542Y-60331653D02*
X218169400Y-60403082D01*
X218169400Y-60403082D02*
X218240828Y-60545939D01*
X218240828Y-60545939D02*
X218240828Y-60688796D01*
X217669400Y-62331653D02*
X217669400Y-63474511D01*
X218240828Y-62903082D02*
X217097971Y-62903082D01*
X217669400Y-64188796D02*
X217669400Y-65331654D01*
X218240828Y-66831654D02*
X218240828Y-65974511D01*
X218240828Y-66403082D02*
X216740828Y-66403082D01*
X216740828Y-66403082D02*
X216955114Y-66260225D01*
X216955114Y-66260225D02*
X217097971Y-66117368D01*
X217097971Y-66117368D02*
X217169400Y-65974511D01*
X217240828Y-68117368D02*
X218240828Y-68117368D01*
X216669400Y-67760225D02*
X217740828Y-67403082D01*
X217740828Y-67403082D02*
X217740828Y-68331653D01*
X217240828Y-68760224D02*
X218240828Y-69117367D01*
X218240828Y-69117367D02*
X217240828Y-69474510D01*
M02*
